<?xml version="1.0" encoding="UTF-8" standalone="no"?>
<!-- Created with Inkscape (http://www.inkscape.org/) -->

<svg
   width="512"
   height="512"
   viewBox="0 0 135.46666 135.46667"
   version="1.1"
   id="svg5"
   xml:space="preserve"
   inkscape:version="1.3.1 (91b66b0783, 2023-11-16)"
   sodipodi:docname="logo_discussions.svg"
   xmlns:inkscape="http://www.inkscape.org/namespaces/inkscape"
   xmlns:sodipodi="http://sodipodi.sourceforge.net/DTD/sodipodi-0.dtd"
   xmlns:xlink="http://www.w3.org/1999/xlink"
   xmlns="http://www.w3.org/2000/svg"
   xmlns:svg="http://www.w3.org/2000/svg"><sodipodi:namedview
     id="namedview7"
     pagecolor="#ffffff"
     bordercolor="#ffffff"
     borderopacity="1"
     inkscape:showpageshadow="0"
     inkscape:pageopacity="0"
     inkscape:pagecheckerboard="1"
     inkscape:deskcolor="#505050"
     inkscape:document-units="mm"
     showgrid="false"
     inkscape:zoom="1.2122939"
     inkscape:cx="334.0774"
     inkscape:cy="323.35393"
     inkscape:window-width="1920"
     inkscape:window-height="1010"
     inkscape:window-x="0"
     inkscape:window-y="0"
     inkscape:window-maximized="1"
     inkscape:current-layer="layer1" /><defs
     id="defs2"><inkscape:path-effect
       effect="bend_path"
       id="path-effect1"
       is_visible="true"
       lpeversion="1"
       bendpath="m -15.779557,150.80725 c 34.297222,32.45606 76.770885,27.34189 100.218899,-4.84748"
       prop_scale="1"
       scale_y_rel="false"
       vertical="false"
       hide_knot="false"
       bendpath-nodetypes="cc" /><linearGradient
       inkscape:collect="always"
       id="linearGradient15698"><stop
         style="stop-color:#ffe900;stop-opacity:1;"
         offset="0"
         id="stop15694" /><stop
         style="stop-color:#650000;stop-opacity:1;"
         offset="0.90044248"
         id="stop15696" /></linearGradient><linearGradient
       inkscape:collect="always"
       id="linearGradient15680"><stop
         style="stop-color:#b38407;stop-opacity:1;"
         offset="0.55088496"
         id="stop15676" /><stop
         style="stop-color:#076eb3;stop-opacity:1;"
         offset="0.64159292"
         id="stop15678" /></linearGradient><linearGradient
       id="linearGradient5186"
       inkscape:swatch="gradient"><stop
         style="stop-color:#339d43;stop-opacity:1;"
         offset="0"
         id="stop5182" /><stop
         style="stop-color:#339d43;stop-opacity:0;"
         offset="1"
         id="stop5184" /></linearGradient><linearGradient
       inkscape:collect="always"
       xlink:href="#linearGradient15680"
       id="linearGradient15682"
       x1="7.6293945e-06"
       y1="67.73333"
       x2="135.46667"
       y2="67.73333"
       gradientUnits="userSpaceOnUse"
       gradientTransform="translate(-39.448051,-165.30773)" /><radialGradient
       inkscape:collect="always"
       xlink:href="#linearGradient15698"
       id="radialGradient15700"
       cx="71.402916"
       cy="26.857515"
       fx="71.402916"
       fy="26.857515"
       r="20.946049"
       gradientUnits="userSpaceOnUse"
       gradientTransform="translate(-165.30773,-96.018619)" /></defs><g
     inkscape:label="Layer 1"
     inkscape:groupmode="layer"
     id="layer1"><circle
       style="fill:url(#linearGradient15682);fill-opacity:1;stroke-width:8.93338"
       id="path9741"
       cx="28.28529"
       cy="-97.574394"
       r="67.73333"
       transform="rotate(-90)" /><path
       class="st0"
       d="m -71.45716,-49.738944 -11.426451,13.868709 h 6.946882 l 6.600373,-7.794363 z m 2.575857,5.539971 1.252442,-1.477882 -3.156155,-3.961895 z m 8.813013,8.366311 8.08661,-9.756524 -5.26444,-11.376353 -17.638557,21.132877 z m 8.51661,-10.2742 1.90372,-2.296142 -6.76319,-8.203501 z m 5.75289,-5.873955 -13.20075,16.102239 h 20.61104 z m 8.03233,16.102239 h 6.1829 l -13.42619,-15.835052 7.21824,15.67641 c 0.025,0.05018 0.0334,0.104457 0.025,0.158642 z"
       id="path11612"
       style="fill:#2c2206;fill-opacity:1;stroke-width:0.417481" /><path
       style="fill:#17171b;fill-opacity:1;stroke-width:0.149628"
       d="m -116.74728,19.126181 -0.15299,-0.5611 h -8.14775 -8.14773 v -0.49967 c 0,-1.94162 0.99239,-10.0618299 1.87619,-15.3518039 0.3635,-2.17581302 0.63764,-3.979284 0.6092,-4.007719 -0.0931,-0.09322 -1.44316,3.872923 -2.12227,6.234893 -1.41495,2.85372 -1.8353,8.6337099 -2.77322,14.7067699 -2.27274,-0.19585 -5.59673,-0.34758 -6.81212,-0.28729 0.0103,-0.71533 0.015,-0.73685 0.015,-0.73685 2.45704,-40.208116 15.25668,-58.131446 39.19635,-60.496495 2.47348,-0.244274 2.55038,-0.229833 1.47408,0.279383 -2.90371,1.373711 -4.44868,3.166772 -4.63369,5.377813 -0.21561,2.576704 1.22395,5.387548 5.71116,11.151465 4.414344,5.670318 5.58331,8.011994 5.014264,10.044472 -0.241965,0.864121 -1.149911,1.864974 -2.242576,2.471995 -0.976238,0.542332 -0.455479,0.435779 0.833308,-0.170568 4.090877,-1.924485 4.009975,-4.86872 -0.309602,-11.266687 -3.977604,-5.891407 -4.953264,-7.608396 -5.468794,-9.624092 -0.68165,-2.66525 -0.0127,-4.731371 2.07385,-6.405009 3.859524,-3.09578 8.850026,-2.877153 12.518097,0.54841 1.51286,1.412854 3.288197,3.848224 3.008869,4.127532 -0.05446,0.05452 -1.964823,1.161759 -4.245186,2.460569 -2.280381,1.298835 -4.094204,2.36221 -4.030764,2.363057 0.06344,8.67e-4 2.790439,-0.816236 6.059964,-1.815744 l 5.944594,-1.817288 3.217015,0.564916 c 16.914781,2.970284 24.371691,6.983647 25.422161,13.682381 l 0.12906,0.822968 -0.46064,-0.593057 c -4.13537,-5.32423 -15.963368,-8.807511 -29.878694,-8.79917 -7.495555,0.005 -8.005128,0.125747 -8.005128,1.903544 0,1.013054 0.141829,1.347216 2.145404,5.054554 3.934146,7.279618 1.899432,14.3883641 -4.769266,16.6626061 -0.891785,0.304098 -3.235302,0.820111 -3.724759,0.820111 -0.05495,0 0.156535,0.521828 0.469839,1.159638 1.046694,2.13063598 1.762732,4.795579 2.060398,7.668446 0.162876,1.57188 0.199431,5.1214 0.0582,5.6484999 l -0.09021,0.33668 -6.005094,0.004 -6.0051,0.004 1.12222,1.08347 c 6.753993,6.52075 17.359743,9.75216 23.683032,7.21587 3.252311,-1.30449 6.07625,-4.57098 6.762349,-7.82216 l 0.102644,-0.48627 h -2.158247 -2.158238 l -0.09611,-2.5811999 c -0.289305,-7.77157402 -2.297744,-12.6059 -6.165061,-14.839349 -0.408712,-0.236065 -0.767287,-0.449107 -0.796841,-0.473455 -0.02954,-0.02492 0.0905,-0.247019 0.26688,-0.494578 1.40268,-1.969851 2.051565,-6.0763211 1.450718,-9.1805971 -0.10752,-0.555505 -0.167258,-1.010009 -0.13277,-1.010009 0.03447,0 0.744329,0.339371 1.577431,0.754159 8.706236,4.334753 12.588699,12.1052381 12.594168,25.2064291 0.0017,4.0974799 -0.01369,4.3129799 -0.699489,9.8007099 -3.471062,6.31634 -30.971746,11.6456 -45.164106,1.16035 z m 9.68757,-9.8127399 c -0.85748,-12.080315 -10.01233,-20.5887611 -18.0326,-16.759334 -1.37672,0.657345 -1.49005,0.824237 -0.38,0.559689 1.19268,-0.28424 3.42416,-0.213137 4.54612,0.14492 3.35103,1.069358 5.66663,3.687839 9.69594,10.964225 2.08675,3.76838 3.80886,6.4117399 4.17713,6.4117399 0.048,0 0.045,-0.59457 -0.006,-1.3212399 z m 16.042019,-43.9956821 c -1.400209,-1.093532 -2.990158,-1.287357 -4.581682,-0.558544 -1.730233,0.792359 -1.63199,0.837229 1.832632,0.837229 3.057469,0 3.100318,-0.005 2.74905,-0.278685 z m -4.675948,-9.758883 c -8.772611,-0.731727 -16.269631,-6.655258 -19.095241,-15.087416 -0.96918,-2.892221 -1.31161,-7.046347 -0.83223,-10.095813 0.38069,-2.421623 0.46107,-2.408775 0.40451,0.06474 -0.13785,6.028936 1.97732,11.359735 6.18953,15.599346 10.892017,10.962922 29.437829,7.088901 35.151421,-7.34271 1.032667,-2.60833 1.33898,-4.342077 1.347153,-7.624513 0.0078,-3.142966 0.155604,-3.157285 0.546336,-0.05305 0.918037,7.293435 -2.227907,15.051338 -7.985372,19.691969 -3.256554,2.624837 -7.785007,4.514812 -11.465647,4.785257 -2.387843,0.175548 -2.825763,0.181773 -4.26046,0.06225 z"
       id="path1945"
       sodipodi:nodetypes="ccccsssccccccsssscsssscssscsscscsssscsscccssscccssccsssscccscssccccsccssssscsscccs" /><circle
       style="fill:url(#radialGradient15700);fill-opacity:1;stroke-width:8.56283"
       id="path5315"
       cx="-93.904816"
       cy="-69.161102"
       r="20.946049" /><path
       d="m -94.398173,-87.631262 c 0.876525,-0.457067 1.946481,0.603247 1.480778,1.478959 -0.270451,0.71385 -1.295979,0.903671 -1.819796,0.359535 -0.554988,-0.522202 -0.374016,-1.554365 0.339018,-1.838494 m -9.427757,1.016278 c 0.53247,-0.219188 1.20649,0.268637 1.1522,0.848968 0.0565,0.62999 -0.71384,1.093685 -1.25657,0.794274 -0.71907,-0.278498 -0.63683,-1.445788 0.10437,-1.643242 m 19.30917,1.660937 c -0.832087,-0.100541 -0.963792,-1.408789 -0.162681,-1.672206 0.621349,-0.303023 1.191424,0.265235 1.282301,0.854205 -0.130293,0.502906 -0.551366,0.963384 -1.11962,0.818001 m -17.16402,2.351664 c 0.89019,-0.56303 2.160428,0.275482 2.023495,1.309446 -0.04625,1.044018 -1.432915,1.648882 -2.215335,0.943075 -0.75647,-0.554383 -0.64186,-1.826227 0.19184,-2.252521 m 13.589365,0.597415 c 0.397134,-1.023508 2.006407,-1.054475 2.458443,-0.05806 0.446806,0.775373 -0.102759,1.735548 -0.898848,1.999158 -1.054476,0.196859 -2.056066,-0.943075 -1.559595,-1.941045 m -7.44207,1.882932 c -0.0086,-0.879734 0.792673,-1.535261 1.628779,-1.595175 0.554578,0.11119 1.159035,0.347461 1.396913,0.907073 0.443393,0.771962 0.04967,1.834882 -0.751446,2.189197 -0.366373,0.205296 -0.799505,0.128282 -1.198449,0.104353 -0.609879,-0.299411 -1.123446,-0.886562 -1.075797,-1.605448 m -14.020495,1.281865 c 0.81318,-0.499882 1.9103,0.412419 1.60244,1.295781 -0.16952,0.764112 -1.19664,1.074985 -1.78381,0.587152 -0.62677,-0.45706 -0.52744,-1.555965 0.18137,-1.882933 m 30.107106,-0.0017 c 0.689929,-0.535691 1.828451,0.07884 1.746205,0.949912 0.04625,0.794274 -0.938046,1.393306 -1.622926,0.984305 -0.75427,-0.339033 -0.831279,-1.499477 -0.123279,-1.934217 m -12.143782,1.581511 c 1.138535,-0.409001 2.490808,0.08043 3.13971,1.095495 0.856006,1.240886 0.400551,3.130664 -0.927801,3.842695 -1.376404,0.842132 -3.386229,0.128291 -3.894566,-1.408789 -0.577105,-1.376005 0.263615,-3.098072 1.682657,-3.529401 m -6.679965,0.135336 c 1.261791,-0.595613 2.959937,-0.09592 3.569417,1.19483 0.717259,1.256361 0.162682,3.005783 -1.11962,3.654483 -1.283918,0.729115 -3.095275,0.17634 -3.716622,-1.172518 -0.696754,-1.30442 -0.07801,-3.076171 1.266825,-3.676795 m -6.688609,2.286727 c 0.0959,-0.812975 0.86285,-1.342022 1.63661,-1.396716 0.83369,0.100541 1.49967,0.748025 1.59036,1.591774 -0.0547,0.835295 -0.70017,1.651688 -1.58534,1.646661 -0.97384,0.08385 -1.82764,-0.884971 -1.64163,-1.841719 m 19.755971,-1.219965 c 0.999782,-0.58194 2.388053,0.265227 2.343615,1.413808 0.06857,1.216957 -1.467909,2.074572 -2.463466,1.360731 -1.034162,-0.594399 -0.953531,-2.268416 0.119851,-2.774539 m -15.785801,4.289089 c 1.169297,-0.321731 2.506297,0.229435 3.079779,1.304227 0.628191,1.081821 0.371407,2.584717 -0.604253,3.378187 -1.251326,1.163871 -3.559156,0.696548 -4.225146,-0.891799 -0.76532,-1.456044 0.16429,-3.407344 1.74962,-3.790615 m 12.670016,-0.0059 c 1.136725,-0.32515 2.472118,0.113016 3.083205,1.148589 0.807955,1.184382 0.422267,2.950888 -0.7806,3.714405 -1.259982,0.886562 -3.211701,0.421066 -3.90503,-0.965202 -0.840527,-1.433917 0.0051,-3.46043 1.602425,-3.897792 m -20.190706,1.35128 c 1.01004,-0.382056 2.12967,0.73255 1.72046,1.733939 -0.24995,0.912309 -1.53567,1.249532 -2.19984,0.576904 -0.77719,-0.631598 -0.48944,-2.036969 0.47938,-2.310843 m 27.377405,1.453228 c -0.02917,-0.836903 0.583152,-1.5781 1.441361,-1.624349 0.691728,0.10959 1.364347,0.667601 1.309647,1.420653 0.06334,0.994552 -1.135109,1.670599 -1.982466,1.203275 -0.397133,-0.201886 -0.600839,-0.609278 -0.768542,-0.999579 m -32.343755,-0.961985 c 0.60767,-0.265227 1.35933,0.261407 1.22058,0.936247 -0.0326,0.764112 -1.16065,1.057901 -1.57508,0.419457 -0.36617,-0.443386 -0.14699,-1.127073 0.3545,-1.355704 z m 38.314909,-0.01525 c 0.427905,-0.304631 1.114407,-0.08566 1.28391,0.414237 0.287556,0.545938 -0.23969,1.293963 -0.854204,1.201675 -0.862641,0.07859 -1.141736,-1.23606 -0.429706,-1.615912 m -22.527294,3.667955 c 1.599011,-0.415838 3.31786,0.917537 3.327917,2.564005 0.104362,1.663745 -1.588556,3.139093 -3.225365,2.754833 -1.265207,-0.203696 -2.257961,-1.422463 -2.216941,-2.700951 -0.0034,-1.222772 0.919356,-2.359304 2.114389,-2.617887 m 6.332499,-0.0034 c 1.622935,-0.453649 3.393067,0.903655 3.36733,2.588128 0.08565,1.632995 -1.554369,3.058667 -3.157002,2.734724 -1.508122,-0.195058 -2.620907,-1.851974 -2.199846,-3.315458 0.21254,-0.975248 1.027326,-1.768316 1.989518,-2.007394 m -12.209544,1.013445 c 1.12305,-0.191631 2.17592,1.061312 1.72046,2.127658 -0.33218,1.136315 -1.98589,1.444591 -2.71703,0.516379 -0.85762,-0.891388 -0.21737,-2.520974 0.99657,-2.644037 m 18.570988,0.0501 c 1.001395,-0.419465 2.230617,0.446805 2.153599,1.533653 0.04021,1.196447 -1.477351,2.021478 -2.456621,1.32312 -1.109177,-0.626974 -0.907284,-2.472111 0.303022,-2.856773 m 5.190758,5.206434 c -0.392111,-0.73095 0.320127,-1.699755 1.13169,-1.564427 0.403978,-0.0067 0.686502,0.311468 0.945095,0.578513 0.05308,0.43314 0.142162,0.949912 -0.217381,1.2837 -0.488218,0.617934 -1.59418,0.441601 -1.859404,-0.297786 m -29.753606,-1.36094 c 0.75849,-0.504909 1.84997,0.248135 1.67944,1.134924 -0.0907,0.784212 -1.0786,1.232432 -1.72931,0.787437 -0.69836,-0.403982 -0.67263,-1.55418 0.0499,-1.922361 m 14.98468,1.641651 c 0.992948,-0.438166 2.257963,0.426285 2.163847,1.519971 0.07361,1.20852 -1.491025,2.045423 -2.461845,1.31971 -1.078416,-0.623154 -0.898652,-2.456436 0.297998,-2.839681 m -6.94037,1.619104 c 0.84575,-0.444994 1.980668,0.323541 1.90366,1.270051 0.02573,0.777174 -0.73276,1.439539 -1.49968,1.324729 -0.63523,-0.01366 -1.04946,-0.583146 -1.25315,-1.12466 0.0105,-0.590176 0.25336,-1.247505 0.84917,-1.47012 m 14.058503,0.01366 c 0.869675,-0.537492 2.10573,0.234462 2.023499,1.246709 0.02232,1.057901 -1.374605,1.735539 -2.184373,1.0406 -0.784017,-0.544723 -0.688309,-1.854178 0.160874,-2.287309 m 2.444764,6.043941 c -0.386885,-0.585367 0.06856,-1.290553 0.696746,-1.42408 0.505119,0.102761 1.039197,0.482605 0.933024,1.068156 -0.0736,0.792473 -1.232637,1.035581 -1.62977,0.355924 m -19.406697,-0.508259 c 0.15403,-0.463897 0.52723,-0.924969 1.07337,-0.804337 0.79609,0.05655 1.03236,1.256369 0.33562,1.626168 -0.62658,0.422481 -1.35349,-0.156032 -1.40899,-0.821831 m 9.362609,0.532272 c 0.152421,-0.686301 1.0408,-1.020097 1.626354,-0.655536 0.386885,0.166094 0.499902,0.599041 0.599231,0.967004 -0.05309,0.191631 -0.100548,0.38348 -0.147194,0.575112 -0.23969,0.28412 -0.547745,0.568258 -0.9467,0.557994 -0.741391,0.08687 -1.410193,-0.751243 -1.131691,-1.444574"
       id="path10172"
       style="fill:#17171b;fill-opacity:1;stroke-width:0.0201084" /><g
       id="g1"
       inkscape:export-filename="discussions_channel.png"
       inkscape:export-xdpi="196.608"
       inkscape:export-ydpi="196.608"><ellipse
         style="fill:#99c1f1;fill-opacity:1;stroke:#000036;stroke-width:1.27932;stroke-dasharray:none;stroke-opacity:1"
         id="path9741-3"
         cx="-66.145844"
         cy="66.145844"
         transform="rotate(-90)"
         rx="65.506165"
         ry="65.506172" /><path
         style="fill:#000036;fill-opacity:1;stroke:#ffb100;stroke-width:0.392;stroke-linecap:butt;stroke-linejoin:miter;stroke-dasharray:none;stroke-opacity:1"
         d="m 93.697869,27.352319 c 5.765283,-3.910286 14.253291,-2.661317 26.221641,4.105182 0.006,-0.05144 -12.20316,-12.466749 -29.645891,-6.673369 C 77.19323,23.563975 81.156254,31.411104 75.896802,35.102787 48.978904,13.720956 17.86671,34.717013 7.3033658,48.444587 6.2394651,49.827177 5.8176532,51.777803 5.6592492,52.77694 5.4791111,53.913166 5.2144326,53.257364 5.7181731,57.29813 L 10.102121,53.490304 C 45.120556,24.75452 56.730893,26.383691 69.413642,33.030287 38.479191,16.540365 5.6294026,67.206524 9.1172393,73.639289 L 11.502331,72.662988 C 15.352886,61.388005 28.596419,49.936475 32.72524,46.377877 c -2.680178,3.028249 -8.261347,8.922539 -10.210747,11.950789 0.596001,-0.01426 1.192003,-0.05194 1.788004,-0.523092 2.570378,-3.903814 9.001849,-8.175064 12.406055,-11.078283 -2.122053,2.444754 -6.265631,5.905344 -8.036508,8.525685 0.88518,0.0736 2.049892,0.03528 2.935073,-0.06988 3.939113,-3.622556 9.019646,-7.01218 12.788528,-9.783573 -2.329422,2.585357 -5.707085,5.349597 -8.036507,8.281096 1.981893,0.504192 4.067341,0.367171 5.380966,0.454238 3.189386,-2.149373 5.927768,-5.092853 8.455803,-7.407563 l -3.773665,6.708736 c 4.578165,-1.511476 7.459911,-4.436633 11.041463,-6.778619 -2.004106,2.236044 -3.903509,4.498265 -5.171318,6.918384 4.790511,-0.781874 6.068307,-3.905558 8.875099,-6.00991 -1.536285,2.120908 -3.503028,3.811359 -4.542374,6.429207 l 2.026597,1.118122 c 2.308906,-2.724344 4.163121,-4.117304 6.289442,-5.380966 -2.949956,2.211806 -3.41361,4.663247 -3.983313,7.05815 12.280122,5.614024 16.307473,21.139533 19.916561,33.403915 0.06537,-2.24029 1.205081,-4.564527 1.03005,-6.839956 -0.323492,-4.205439 -3.015946,-15.521964 -6.004298,-27.545918 -2.197732,-8.842803 -1.516885,-12.577377 1.200584,-19.493664 -2.334534,5.864372 -0.690001,16.318227 4.045268,28.191684 0.610296,1.530286 2.352649,9.750838 2.523703,17.581462 4.975672,-16.063294 2.886649,-28.99666 -2.515776,-40.462063 5.022761,0.103163 6.291817,1.552551 6.531547,1.833907 5.839773,8.474587 1.34472,22.506501 -1.080699,35.553322 5.373243,-11.785311 6.890055,-19.321864 7.157451,-25.682131 0.202803,-4.823857 -3.015039,-10.024103 -3.129353,-15.830896 -0.129896,-6.59832 2.309,-9.040084 3.064993,-10.147738 z"
         id="path770"
         sodipodi:nodetypes="ccccssccccccccccccccccccccccccsscsccccssc" /><path
         style="fill:#000036;fill-opacity:1;stroke:#ffb100;stroke-width:0.391952;stroke-linecap:butt;stroke-linejoin:miter;stroke-dasharray:none;stroke-opacity:1"
         d="M 94.291872,53.715557 C 105.51725,105.41594 82.308622,132.62441 52.781566,125.27541 75.436086,118.70015 98.515109,112.95669 94.291872,53.715557 Z"
         id="path1480"
         sodipodi:nodetypes="ccc" /><path
         style="fill:#000036;fill-opacity:1;stroke:#ffb100;stroke-width:0.391952;stroke-linecap:butt;stroke-linejoin:miter;stroke-dasharray:none;stroke-opacity:1"
         d="m 92.055627,84.324161 c -3.880181,34.519109 -36.20251,42.309699 -56.604963,36.618529 4.598984,-1.50601 6.134677,-1.04276 8.997393,-1.4326 -3.27523,-0.65874 -7.019394,-1.25474 -10.202869,-3.26702 45.020989,2.44157 57.810439,-31.918909 57.810439,-31.918909 z"
         id="path1482"
         sodipodi:nodetypes="ccccc" /><path
         style="fill:#000036;fill-opacity:1;stroke:#ffb100;stroke-width:0.391952;stroke-linecap:butt;stroke-linejoin:miter;stroke-dasharray:none;stroke-opacity:1"
         d="M 92.474922,67.412561 C 91.351104,101.3161 67.070528,113.92619 38.106206,112.76641 65.552186,109.96584 87.422003,100.80286 92.474922,67.412561 Z"
         id="path1484"
         sodipodi:nodetypes="ccc" /><ellipse
         style="fill:none;stroke:#ffb100;stroke-width:0.496893;stroke-dasharray:none;stroke-opacity:1"
         id="path1705"
         cx="60.24324"
         cy="54.560684"
         rx="1.2436187"
         ry="0.54658598"
         transform="matrix(0.94670062,-0.32211478,0.53480597,0.8449749,0,0)" /><g
         id="g4048"
         transform="matrix(0.08883412,0,0,0.08883412,9.9142263,-8.9018783)"><circle
           style="opacity:1;fill:#000036;fill-opacity:1;stroke-width:112.352"
           id="path5315-3"
           cx="401.41592"
           cy="1022.7028"
           r="274.83121" /><path
           d="m 394.94255,780.35762 c 11.50081,-5.99714 25.53961,7.91512 19.42915,19.40527 -3.54857,9.36637 -17.00443,11.85698 -23.87738,4.71745 -7.28194,-6.85178 -4.90742,-20.3947 4.44823,-24.12272 m -123.70079,13.33449 c 6.98651,-2.87596 15.83024,3.52476 15.11791,11.13924 0.74149,8.26603 -9.36624,14.35013 -16.48724,10.4216 -9.43487,-3.65415 -8.35587,-18.97007 1.36933,-21.56084 m 253.35391,21.79301 c -10.91772,-1.31919 -12.64583,-18.4846 -2.13453,-21.94086 8.15268,-3.97596 15.63256,3.48011 16.82498,11.20794 -1.70958,6.59859 -7.23445,12.64045 -14.69045,10.73292 m -225.2076,30.85595 c 11.68011,-7.3874 28.34682,3.6146 26.55015,17.1811 -0.60684,13.6985 -18.80115,21.6349 -29.06722,12.374 -9.92557,-7.274 -8.42172,-23.9617 2.51707,-29.5551 m 178.30486,7.8386 c 5.21077,-13.4293 26.32589,-13.8356 32.25704,-0.7618 5.86248,10.1737 -1.34829,22.772 -11.7937,26.2308 -13.83572,2.583 -26.97747,-12.374 -20.46334,-25.4683 m -97.64673,24.7058 c -0.11282,-11.5429 10.40059,-20.144 21.37108,-20.9301 7.27656,1.4589 15.20758,4.559 18.32877,11.9016 5.81773,10.1288 0.65171,24.0753 -9.85966,28.7242 -4.80715,2.6937 -10.49022,1.6832 -15.72473,1.3693 -8.00219,-3.9286 -14.74065,-11.6326 -14.11546,-21.065 m -183.96165,16.8193 c 10.66971,-6.559 25.06483,5.4113 21.02544,17.0018 -2.2242,10.0258 -15.70099,14.1047 -23.40521,7.704 -8.22374,-5.9971 -6.92044,-20.4157 2.37977,-24.7058 m 395.03266,-0.021 c 9.05247,-7.0287 23.99093,1.0345 22.91179,12.4637 0.60683,10.4216 -12.30805,18.2815 -21.29428,12.915 -9.8967,-4.4484 -10.90713,-19.6745 -1.61751,-25.3787 m -159.33747,20.7509 c 14.9386,-5.3665 32.68164,1.0553 41.19585,14.3739 11.23154,16.2815 5.25558,41.0771 -12.1736,50.4196 -18.05968,11.0496 -44.43042,1.6833 -51.10025,-18.4845 -7.57216,-18.0545 3.45887,-40.6496 22.078,-46.309 m -87.64725,1.7757 c 16.55587,-7.8149 38.83709,-1.2585 46.834,15.6773 9.41109,16.4846 2.13453,39.4386 -14.69042,47.9501 -16.84616,9.5667 -40.61283,2.3138 -48.76547,-15.3845 -9.14198,-17.1152 -1.02356,-40.3621 16.62189,-48.2429 m -87.76062,30.004 c 1.25844,-10.667 11.32135,-17.6086 21.47387,-18.3262 10.93865,1.3192 19.67705,9.8148 20.86693,20.8855 -0.71771,10.9598 -9.18682,21.6717 -20.80115,21.6057 -12.77765,1.1002 -23.98021,-11.6116 -21.53965,-24.165 m 259.21631,-16.0071 c 13.11804,-7.6356 31.33342,3.48 30.75037,18.5505 0.8997,15.9675 -19.26032,27.2202 -32.32292,17.854 -13.56913,-7.7991 -12.51121,-29.7637 1.57255,-36.4045 m -207.12403,56.2768 c 15.34221,-4.2214 32.88487,3.0104 40.40947,17.11263 8.24242,14.1945 4.87319,33.9138 -7.92835,44.3249 -16.41853,15.2711 -46.69937,9.1394 -55.43773,-11.7012 -10.04171,-19.1046 2.1556,-44.70753 22.95661,-49.73633 m 166.24208,-0.077 c 14.91489,-4.2662 32.43645,1.4829 40.45446,15.07063 10.60112,15.5402 5.54053,38.7183 -10.24218,48.7364 -16.53209,11.6325 -42.14043,5.5247 -51.23755,-12.6644 -11.02846,-18.8142 0.067,-45.40403 21.02527,-51.14263 m -264.92046,17.73013 c 13.25267,-5.0129 27.94326,9.6117 22.57409,22.7508 -3.2796,11.9704 -20.14937,16.395 -28.86399,7.5696 -10.19737,-8.2872 -6.42186,-26.7269 6.2899,-30.3204 m 359.2165,19.0677 c -0.38274,-10.981 7.65149,-20.7062 18.91196,-21.313 9.07612,1.4379 17.90148,8.7595 17.18377,18.6403 0.83109,13.0494 -14.89364,21.9198 -26.01174,15.788 -5.21077,-2.6489 -7.88356,-7.9942 -10.08399,-13.1153 m -424.3794,-12.6222 c 7.97313,-3.48 17.83552,3.4299 16.01507,12.2844 -0.42749,10.0259 -15.22883,13.8807 -20.66656,5.5037 -4.80445,-5.8176 -1.92863,-14.7882 4.65149,-17.7881 z m 502.72637,-0.1999 c 5.61451,-3.9971 14.62203,-1.1239 16.84609,5.4351 3.77302,7.1633 -3.14497,16.978 -11.20794,15.7671 -11.31865,1.0312 -14.98061,-16.2182 -5.63815,-21.2022 m -295.57859,48.1269 c 20.98049,-5.4562 43.53336,12.0391 43.66532,33.6423 1.36932,21.8296 -20.8433,41.1875 -42.31974,36.1457 -16.60065,-2.6728 -29.62652,-18.6639 -29.08828,-35.4389 -0.0448,-16.0438 12.06278,-30.9563 27.7427,-34.3491 m 83.08816,-0.044 c 21.2944,-5.9523 44.52013,11.8568 44.18241,33.9585 1.12382,21.4263 -20.39473,40.1325 -41.42271,35.8819 -19.78794,-2.5593 -34.38869,-24.2993 -28.86399,-43.5016 2.78872,-12.7962 13.47946,-23.2019 26.10429,-26.3388 m -160.20029,13.2971 c 14.73537,-2.5144 28.55005,13.9255 22.57394,27.917 -4.35842,14.9094 -26.05659,18.9541 -35.64983,6.7752 -11.25276,-11.6958 -2.85207,-33.0775 13.07589,-34.6922 m 243.66822,0.6575 c 13.13921,-5.5038 29.26772,5.8625 28.25718,20.123 0.52758,15.6985 -19.38419,26.5235 -32.23311,17.3603 -14.55339,-8.2262 -11.90437,-32.4363 3.97593,-37.4833 m 68.10745,68.313 c -5.14484,-9.5906 4.20036,-22.3021 14.84883,-20.5267 5.30053,-0.087 9.00752,4.0867 12.40049,7.5906 0.69647,5.6833 1.86531,12.4639 -2.85224,16.8433 -6.40586,8.1079 -20.91707,5.7944 -24.39708,-3.9072 m -390.39432,-17.8568 c 9.95199,-6.6248 24.27321,3.256 22.03571,14.8914 -1.18995,10.2897 -14.15222,16.1706 -22.69007,10.3317 -9.16315,-5.3004 -8.82547,-20.392 0.65436,-25.2231 m 196.61259,21.5401 c 13.02836,-5.7493 29.62652,5.5931 28.39164,19.9435 0.96583,15.8568 -19.5636,26.8377 -32.30164,17.3155 -14.14979,-8.1762 -11.79113,-32.2304 3.91,-37.259 m -91.06397,21.244 c 11.09706,-5.8385 25.98817,4.2454 24.97777,16.6642 0.33743,10.1974 -9.61449,18.8882 -19.6772,17.3818 -8.33479,-0.1805 -13.76982,-7.6513 -16.44245,-14.7566 0.13713,-7.7437 3.32428,-16.3684 11.14188,-19.2894 m 184.46035,0.1805 c 11.41092,-7.0525 27.62911,3.0762 26.55015,16.3577 0.293,13.8807 -18.03608,22.7721 -28.66097,13.6537 -10.28701,-7.1473 -9.03123,-24.3284 2.11082,-30.0114 m 32.07752,79.3018 c -5.07628,-7.6805 0.89958,-16.9332 9.14193,-18.685 6.62766,1.348 13.63524,6.3321 12.24213,14.0151 -0.96569,10.398 -16.1733,13.5877 -21.38406,4.6699 m -254.6335,-6.6688 c 2.02098,-6.0868 6.91781,-12.1363 14.08362,-10.5536 10.44541,0.7418 13.54553,16.4847 4.40355,21.337 -8.22124,5.543 -17.75901,-2.0476 -18.48717,-10.7834 m 122.84595,6.9841 c 1.99991,-9.0049 13.65624,-13.3847 21.33925,-8.6012 5.07627,2.1791 6.55915,7.8596 7.86245,12.6879 -0.6966,2.5141 -1.3193,5.0314 -1.93134,7.5458 -3.14493,3.7281 -7.18692,7.4563 -12.42157,7.3216 -9.7277,1.1397 -18.503,-9.8572 -14.84879,-18.9541"
           id="path10172-6"
           style="fill:#ffb100;fill-opacity:1;stroke-width:0.263841" /></g><path
         style="font-weight:bold;font-size:8.93274px;line-height:1.35;font-family:'Nimbus Sans';-inkscape-font-specification:'Nimbus Sans Bold';fill:#000036;stroke:#ffb100;stroke-width:0.235"
         d="m -18.064568,153.05939 c 0.685235,0.65472 1.381779,1.29987 2.089183,1.93486 0.826199,0.74163 1.515904,1.02311 2.234957,0.94227 0.82847,-0.0977 1.622304,-0.57984 2.278003,-1.367 0.648702,-0.77875 0.982959,-1.64707 0.974451,-2.46325 -0.0164,-0.70951 -0.35844,-1.29075 -1.139264,-1.98338 -0.661652,-0.58691 -1.313909,-1.18293 -1.956325,-1.78745 z m 1.847834,0.20228 2.899081,-3.15544 c 0.312754,0.28602 0.62772,0.57003 0.94485,0.85194 0.791733,0.70382 0.740655,1.58379 -0.203105,2.68035 -0.934649,1.08597 -1.816792,1.27043 -2.653905,0.52045 -0.33137,-0.29688 -0.66036,-0.596 -0.986921,-0.8973 z m 8.6905775,0.28573 c -0.3671663,-0.28831 -0.7319795,-0.57948 -1.0943746,-0.87343 l -4.1347299,5.07841 c 0.388768,0.3176 0.78036,0.63212 1.174712,0.94349 z m 3.9545745,5.35083 c 0.7539352,-1.13652 0.371731,-2.27486 -1.0112614,-3.27123 -1.3155039,-0.94775 -2.5128354,-0.95399 -3.2932479,0.0618 -0.6157695,0.80152 -0.4925758,1.53893 0.5233457,2.59666 0.2317326,0.24427 0.4651341,0.48745 0.7001994,0.72951 0.6942139,0.70715 0.8544113,1.11602 0.5505398,1.55452 -0.3119815,0.45019 -0.9607576,0.41071 -1.7000406,-0.11998 -0.8285569,-0.59478 -1.0473921,-1.24771 -0.6685458,-1.83816 -0.3840752,-0.28642 -0.7657514,-0.5759 -1.1449684,-0.86834 -0.7825468,1.16008 -0.4141728,2.43416 1.118486,3.53671 1.5509436,1.1157 2.9180281,1.06462 3.6603783,-0.0445 0.5775479,-0.86292 0.3996276,-1.61856 -0.5308406,-2.55597 -0.2624682,-0.26461 -0.5229164,-0.53064 -0.7813372,-0.79804 -0.7258119,-0.75551 -0.8470531,-1.08794 -0.5625395,-1.47055 0.2956803,-0.39763 0.8477253,-0.37649 1.4434254,0.0535 0.725512,0.52367 0.9345747,1.10283 0.5924505,1.67772 0.3660471,0.255 0.7340502,0.50714 1.1039563,0.75636 z m 5.8999731,3.88707 c 0.23325,-0.51819 0.2993973,-0.89094 0.2262203,-1.35557 -0.1323031,-0.83773 -0.672485,-1.57293 -1.5377133,-2.09656 -1.61805241,-0.97924 -3.3522441,-0.55872 -4.5211008,1.22018 -1.1575045,1.76163 -0.8397296,3.56829 0.9378194,4.63934 1.58817668,0.95694 3.10180935,0.69958 3.9043234,-0.56455 -0.41724638,-0.2314 -0.83259253,-0.46651 -1.24597828,-0.70525 -0.50234278,0.67329 -1.24144352,0.80098 -2.03848852,0.32084 -0.9980329,-0.60123 -1.1073097,-1.6795 -0.3437336,-2.88609 0.7754957,-1.22543 1.80802644,-1.58547 2.75297984,-1.01488 0.70101906,0.42329 0.91185496,0.97873 0.67689636,1.76783 0.3945146,0.22832 0.7907918,0.45325 1.1887752,0.67471 z m 5.5563713,0.37339 -1.8867852,3.99828 c -0.3350965,0.71011 -0.9001305,0.86719 -1.7420385,0.45352 -0.8419726,-0.41371 -1.062446,-0.95704 -0.7024315,-1.65675 l 2.0262849,-3.93822 C 5.168164,161.80263 4.7581597,161.58586 4.3498446,161.3653 l -2.0991972,3.9041 c -0.3483389,0.64784 -0.4045615,1.20949 -0.153871,1.78717 0.2693983,0.62793 0.8538228,1.19076 1.6520219,1.58226 0.7981459,0.39148 1.6014158,0.50934 2.2630043,0.33959 0.6104571,-0.15393 1.0203315,-0.53981 1.3205149,-1.20832 l 1.8091584,-4.029 c -0.420364,-0.19003 -0.8392902,-0.3842 -1.2567135,-0.58241 z m 6.3839796,4.76077 c 0.432442,-1.27741 -0.215865,-2.2661 -1.773014,-2.87783 -1.482281,-0.58233 -2.6303316,-0.30205 -3.1352808,0.86803 -0.3975689,0.92126 -0.1009772,1.60354 1.1374928,2.36876 0.283059,0.17731 0.567576,0.3528 0.853546,0.52642 0.842376,0.50521 1.099787,0.85513 0.918992,1.35151 -0.185343,0.50887 -0.818898,0.63505 -1.664903,0.30977 -0.9483215,-0.36463 -1.3214135,-0.93879 -1.1024993,-1.59929 -0.4408546,-0.18086 -0.8801795,-0.36598 -1.3179144,-0.55527 -0.4712405,1.30772 0.1994716,2.44601 1.9596337,3.12338 1.781066,0.68541 3.081529,0.28497 3.508319,-0.96152 0.332643,-0.97152 -0.03069,-1.64659 -1.154054,-2.3109 -0.31716,-0.1877 -0.632567,-0.37775 -0.946215,-0.57009 -0.882031,-0.5445 -1.07928,-0.83535 -0.899918,-1.27298 0.18653,-0.45512 0.719982,-0.56954 1.393695,-0.30484 0.820285,0.32228 1.163312,0.82377 0.979812,1.45999 0.412963,0.15227 0.827084,0.30058 1.242308,0.44486 z m 6.040561,1.78841 c 0.309387,-1.30743 -0.424174,-2.22408 -2.016774,-2.68647 -1.516029,-0.44015 -2.626823,-0.0614 -3.02412,1.14325 -0.312585,0.94781 0.04077,1.59891 1.337806,2.24595 0.296628,0.15027 0.594646,0.29847 0.89405,0.44458 0.881375,0.4242 1.169452,0.74687 1.036045,1.25582 -0.136691,0.52147 -0.754053,0.70488 -1.624233,0.45859 -0.975371,-0.27605 -1.397322,-0.81256 -1.239542,-1.48664 -0.453647,-0.14002 -0.906039,-0.28466 -1.357119,-0.43387 -0.351555,1.33727 0.415467,2.40867 2.227882,2.92258 1.834295,0.52011 3.088727,0.001 3.394884,-1.2742 0.238753,-0.99472 -0.185468,-1.62909 -1.359241,-2.18393 -0.331459,-0.15682 -0.66125,-0.31629 -0.989366,-0.47833 -0.923047,-0.45928 -1.144027,-0.73017 -1.005455,-1.17998 0.144125,-0.46784 0.661747,-0.62914 1.351766,-0.42863 0.840149,0.24414 1.225587,0.70876 1.102257,1.35643 0.422835,0.11262 0.846572,0.22092 1.27116,0.32485 z m 2.881793,-1.36812 c -0.443822,-0.0902 -0.886912,-0.1854 -1.329203,-0.28567 l -1.417189,6.29663 c 0.488853,0.10933 0.978911,0.21333 1.470108,0.31194 z m 4.070927,0.57154 c -0.910329,-0.11858 -1.701691,0.0591 -2.361071,0.54823 -0.687905,0.50848 -1.198164,1.33348 -1.373745,2.27994 -0.176106,0.94929 0.0071,1.9084 0.542825,2.62022 0.515063,0.69633 1.289245,1.11604 2.327977,1.2516 1.038817,0.13557 1.896372,-0.0713 2.573624,-0.61291 0.680632,-0.53609 1.123727,-1.44035 1.191205,-2.35173 0.07435,-1.00422 -0.208394,-1.94181 -0.743017,-2.59969 -0.52804,-0.66016 -1.210479,-1.01225 -2.157798,-1.13566 z m -0.137351,1.12349 c 1.106802,0.14408 1.748366,1.08694 1.611513,2.48005 -0.129508,1.31834 -1.000809,2.1295 -2.191959,1.97413 -1.210114,-0.15785 -1.824378,-1.16288 -1.606987,-2.50446 0.218164,-1.34635 1.089185,-2.09269 2.187433,-1.94972 z m 8.322258,5.91107 c 0.506452,-0.006 1.013455,-0.0188 1.520943,-0.0376 l -0.27131,-6.48883 c -0.451964,0.0214 -0.903849,0.0367 -1.35559,0.0462 l 0.07209,4.40905 c -0.966092,-1.45563 -1.858903,-2.92985 -2.681047,-4.41979 -0.462968,-0.0134 -0.925651,-0.0328 -1.38798,-0.0583 l -0.368148,6.44457 c 0.502631,0.0297 1.006005,0.0533 1.510058,0.071 l 0.145182,-4.46505 c 0.864435,1.51703 1.802125,3.0176 2.8158,4.49871 z m 7.566318,-5.17433 c -0.222833,-1.3318 -1.25142,-1.89036 -2.882877,-1.71811 -0.874654,0.0923 -1.525645,0.36704 -1.924342,0.81736 -0.314808,0.35816 -0.471394,0.82445 -0.437896,1.38276 0.03303,0.55047 0.217128,0.93782 0.618072,1.19812 0,0 0,0 0,0 0.330605,0.21482 0.810932,0.343 1.466912,0.39297 0.333334,0.0275 0.667267,0.0518 1.001757,0.073 0.982213,0.0571 1.374852,0.24245 1.447774,0.76641 0.07454,0.53557 -0.429764,0.94592 -1.340207,1.0507 -1.020969,0.11751 -1.620641,-0.22432 -1.727287,-0.91134 -0.249437,0.0212 -0.499138,0.0407 -0.749092,0.0586 -0.228689,0.0154 -0.457315,0.0295 -0.68587,0.0422 0.0758,0.6222 0.341442,1.10684 0.789154,1.43724 0.548642,0.40004 1.371375,0.56435 2.411905,0.44508 1.927898,-0.22099 2.891101,-1.19809 2.677388,-2.49485 -0.167152,-1.01424 -0.807608,-1.43218 -2.106796,-1.49577 -0.367122,-0.0181 -0.733575,-0.04 -1.099297,-0.0657 -1.030139,-0.0756 -1.33649,-0.24695 -1.376701,-0.71819 -0.04185,-0.49043 0.376146,-0.83382 1.086537,-0.90875 0.865194,-0.0913 1.398134,0.19026 1.533263,0.83867 0.433457,-0.0581 0.866015,-0.12165 1.297603,-0.19041 z m 9.322457,-2.10221 c -0.225713,-0.51483 -0.454434,-0.81002 -0.840372,-1.06556 -0.69601,-0.46042 -1.575179,-0.55791 -2.519792,-0.28635 -1.750351,0.5032 -2.62569,2.01605 -2.158532,4.06496 0.46175,2.02518 1.979089,3.04028 3.992422,2.46331 1.794156,-0.51416 2.618686,-1.80279 2.222962,-3.22827 -0.448313,0.15337 -0.898396,0.30147 -1.350168,0.44423 0.155694,0.81486 -0.248567,1.44115 -1.142706,1.69805 -1.12174,0.32229 -1.974045,-0.33272 -2.321476,-1.69714 -0.353253,-1.38728 0.08479,-2.36879 1.115501,-2.666 0.767238,-0.22123 1.307044,-0.005 1.725265,0.69304 0.427156,-0.1351 0.852814,-0.27522 1.276896,-0.42027 z m 5.344278,-0.65208 1.189347,2.69272 c 0.461723,-0.20327 0.921113,-0.4119 1.378079,-0.62579 l -2.757647,-5.87175 c -0.414055,0.1952 -0.830143,0.38548 -1.248174,0.57073 l 0.980594,2.22103 c -0.830732,0.36712 -1.669104,0.71541 -2.514489,1.04422 l -0.878587,-2.26073 c -0.422296,0.16465 -0.846338,0.32417 -1.272037,0.47846 l 2.2006,6.08859 c 0.474621,-0.17112 0.947168,-0.34788 1.417553,-0.53016 l -1.065247,-2.74103 c 0.864207,-0.33578 1.721088,-0.69143 2.570008,-1.06629 z m 6.906706,-1.66963 c 0.355765,0.29948 0.714002,0.59698 1.074684,0.89248 0.447567,-0.26172 0.892202,-0.5286 1.333808,-0.80053 -1.862479,-1.40075 -3.663451,-2.85543 -5.39897,-4.36108 -0.439017,0.24988 -0.880861,0.49419 -1.32541,0.73281 0.327542,2.2819 0.572943,4.58759 0.732941,6.91299 0.463344,-0.22408 0.924116,-0.45359 1.382222,-0.68842 -0.05292,-0.46335 -0.109035,-0.92584 -0.16832,-1.38745 0.798166,-0.4172 1.588027,-0.85098 2.369045,-1.3008 z m -0.903731,-0.76737 c -0.536113,0.30477 -1.076356,0.60183 -1.620547,0.89101 -0.125405,-0.892 -0.262652,-1.78059 -0.411568,-2.66555 0.667665,0.59896 1.345109,1.19053 2.032115,1.77454 z m 7.760137,-2.12388 c 0.408723,-0.29762 0.814259,-0.5997 1.216518,-0.90616 l -3.957468,-5.18558 c -0.364592,0.27879 -0.732045,0.5536 -1.102269,0.82435 l 2.614865,3.58384 c -1.635378,-0.63776 -3.231626,-1.32687 -4.784958,-2.06495 -0.390721,0.26152 -0.784182,0.51855 -1.180288,0.77101 l 3.491238,5.49497 c 0.426774,-0.2704 0.850622,-0.54555 1.271457,-0.82535 l -2.497782,-3.74734 c 1.600429,0.73676 3.244644,1.42265 4.928687,2.05521 z m 5.670515,-4.59796 c 0.37598,-0.33851 0.748344,-0.68104 1.117005,-1.02751 l -4.472461,-4.75817 c -0.334999,0.31494 -0.673286,0.62635 -1.014772,0.93413 l 2.973433,3.30092 c -1.694282,-0.46704 -3.356274,-0.98883 -4.982187,-1.56298 -0.36291,0.30129 -0.729012,0.59858 -1.098209,0.89176 l 4.053728,5.1133 c 0.396559,-0.31393 0.789764,-0.63215 1.179529,-0.95458 l -2.878359,-3.47547 c 1.672006,0.56806 3.380755,1.08176 5.122293,1.5386 z m 1.204557,-5.04925 c 0.791529,-0.80755 1.563046,-1.6345 2.31343,-2.47968 l -0.836763,-0.74304 c -0.738368,0.83124 -1.497483,1.64462 -2.276225,2.43897 l -1.055418,-1.03454 c 0.822986,-0.83927 1.623664,-1.70017 2.400623,-2.58122 l -0.839647,-0.73968 c -1.068036,1.21045 -2.181541,2.38237 -3.336657,3.51174 l 4.56563,4.66885 c 1.314062,-1.28523 2.578129,-2.62124 3.787935,-4.00361 l -0.841501,-0.73752 c -0.863349,0.98602 -1.754705,1.94816 -2.672445,2.88473 -0.402988,-0.395 -0.805975,-0.79 -1.208962,-1.185 z m 1.433019,-7.17896 c -0.28937,0.3563 -0.582596,0.70966 -0.87959,1.05999 l 4.980226,4.21381 c 1.08508,-1.28465 2.123865,-2.60734 3.113082,-3.96465 l -0.901521,-0.65892 c -0.681314,0.93393 -1.386489,1.8513 -2.114405,2.75093 -1.399264,-1.13372 -2.798528,-2.26744 -4.197792,-3.40116 z"
         id="text1"
         transform="matrix(0.41464124,-0.83748305,0.73185638,0.47448519,-20.877173,39.905989)"
         aria-label="DISCUSSIONS CHANNEL"
         inkscape:path-effect="#path-effect1"
         inkscape:original-d="m -19.349214,153.62737 h 2.545831 c 0.991534,0 1.616826,-0.23226 2.063463,-0.75929 0.509166,-0.60742 0.786081,-1.48283 0.786081,-2.50117 0,-1.00939 -0.276915,-1.8848 -0.786081,-2.50116 -0.446637,-0.52703 -1.062996,-0.75035 -2.063463,-0.75035 h -2.545831 z m 1.339911,-1.1166 v -4.27878 h 1.20592 c 1.0094,0 1.509633,0.70569 1.509633,2.14386 0,1.42924 -0.500233,2.13492 -1.509633,2.13492 z m 6.324381,-5.39537 h -1.339911 v 6.51197 h 1.339911 z m 6.0028005,1.98307 c -0.00893,-1.34885 -0.9111395,-2.09027 -2.5547637,-2.09027 -1.5632295,0 -2.4654358,0.73249 -2.4654358,2.00094 0,1.0094 0.509166,1.5007 1.8312113,1.75082 l 0.9111395,0.17865 c 0.893274,0.16972 1.2237854,0.41984 1.2237854,0.94687 0,0.5449 -0.5002335,0.87541 -1.3131128,0.87541 -0.9111395,0 -1.4203057,-0.38411 -1.4649694,-1.08086 h -1.30418 c 0.0804,1.39351 1.0361978,2.15279 2.6976875,2.15279 1.6793551,0 2.6708893,-0.77715 2.6708893,-2.10813 0,-1.02726 -0.518099,-1.56323 -1.7240189,-1.79548 l -1.0183324,-0.19652 c -0.9558032,-0.18759 -1.2327181,-0.37517 -1.2327181,-0.84861 0,-0.4913 0.4287715,-0.80395 1.1255252,-0.80395 0.8486104,0 1.3220456,0.35731 1.3667093,1.01834 z m 6.601291,0.22331 c -0.0446637,-0.56276 -0.16078933,-0.92007 -0.43770427,-1.28631 -0.50023346,-0.66102 -1.30418007,-1.02727 -2.27784873,-1.02727 -1.8401445,0 -2.9835353,1.31312 -2.9835353,3.42124 0,2.0992 1.134458,3.40338 2.9478043,3.40338 1.62575873,0 2.69768756,-0.93794 2.77808222,-2.42971 h -1.30418007 c -0.0893274,0.83075 -0.60742634,1.30418 -1.43817115,1.30418 -1.0361979,0 -1.6436242,-0.83967 -1.6436242,-2.25998 0,-1.43817 0.6342245,-2.29571 1.6882879,-2.29571 0.77714837,0 1.21485264,0.37517 1.39350745,1.17018 z m 4.8594113,-2.20638 v 4.41277 c 0,0.78608 -0.4019733,1.16126 -1.2416509,1.16126 -0.8396776,0 -1.2416509,-0.37518 -1.2416509,-1.16126 V 147.1154 H 1.955368 v 4.41277 c 0,0.73249 0.1965203,1.25058 0.6342245,1.64363 0.4734353,0.42877 1.1612563,0.66102 1.9473374,0.66102 0.7860811,0 1.4739021,-0.23225 1.9473374,-0.66102 0.4377042,-0.39305 0.6342245,-0.91114 0.6342245,-1.64363 v -4.41277 z m 7.3873842,1.98307 c -0.0089,-1.34885 -0.91114,-2.09027 -2.554764,-2.09027 -1.5632293,0 -2.4654361,0.73249 -2.4654361,2.00094 0,1.0094 0.5091662,1.5007 1.8312117,1.75082 l 0.9111394,0.17865 c 0.893274,0.16972 1.223786,0.41984 1.223786,0.94687 0,0.5449 -0.500234,0.87541 -1.313113,0.87541 -0.9111398,0 -1.420306,-0.38411 -1.4649697,-1.08086 h -1.30418 c 0.080395,1.39351 1.0361978,2.15279 2.6976877,2.15279 1.679355,0 2.670889,-0.77715 2.670889,-2.10813 0,-1.02726 -0.518099,-1.56323 -1.724019,-1.79548 l -1.018332,-0.19652 c -0.9558033,-0.18759 -1.2327183,-0.37517 -1.2327183,-0.84861 0,-0.4913 0.4287716,-0.80395 1.1255253,-0.80395 0.84861,0 1.322046,0.35731 1.366709,1.01834 z m 5.993866,0 c -0.0089,-1.34885 -0.91114,-2.09027 -2.554764,-2.09027 -1.563229,0 -2.465436,0.73249 -2.465436,2.00094 0,1.0094 0.509166,1.5007 1.831212,1.75082 l 0.911139,0.17865 c 0.893274,0.16972 1.223786,0.41984 1.223786,0.94687 0,0.5449 -0.500234,0.87541 -1.313113,0.87541 -0.91114,0 -1.420306,-0.38411 -1.46497,-1.08086 h -1.30418 c 0.08039,1.39351 1.036198,2.15279 2.697688,2.15279 1.679355,0 2.670889,-0.77715 2.670889,-2.10813 0,-1.02726 -0.518099,-1.56323 -1.724019,-1.79548 l -1.018332,-0.19652 c -0.955803,-0.18759 -1.232718,-0.37517 -1.232718,-0.84861 0,-0.4913 0.428771,-0.80395 1.125525,-0.80395 0.84861,0 1.322046,0.35731 1.366709,1.01834 z m 2.438634,-1.98307 h -1.339911 v 6.51197 h 1.339911 z m 4.064398,-0.1072 c -0.91114,0 -1.66149,0.30372 -2.21532,0.90221 -0.580628,0.62529 -0.911139,1.53643 -0.911139,2.5101 0,0.97367 0.330511,1.89374 0.911139,2.5101 0.562763,0.60743 1.295248,0.90221 2.224253,0.90221 0.929005,0 1.661489,-0.29478 2.224252,-0.90221 0.562763,-0.59849 0.91114,-1.54536 0.91114,-2.46543 0,-1.01834 -0.330512,-1.93841 -0.91114,-2.55477 -0.571695,-0.61636 -1.286315,-0.90221 -2.233185,-0.90221 z m 0.0089,1.1434 c 1.098727,0 1.795481,0.89327 1.795481,2.30464 0,1.33991 -0.723552,2.23319 -1.795481,2.23319 -1.089795,0 -1.795481,-0.89328 -1.795481,-2.26892 0,-1.37564 0.705686,-2.26891 1.795481,-2.26891 z m 8.021597,5.47577 h 1.339911 V 147.1154 H 33.69336 v 4.43064 L 31.111832,147.1154 H 29.73619 v 6.51197 h 1.339911 v -4.50211 z m 7.306984,-4.5289 c -0.0089,-1.34885 -0.91114,-2.09027 -2.554764,-2.09027 -1.56323,0 -2.465436,0.73249 -2.465436,2.00094 0,1.0094 0.509166,1.5007 1.831211,1.75082 l 0.91114,0.17865 c 0.893274,0.16972 1.223785,0.41984 1.223785,0.94687 0,0.5449 -0.500233,0.87541 -1.313113,0.87541 -0.911139,0 -1.420305,-0.38411 -1.464969,-1.08086 h -1.30418 c 0.08039,1.39351 1.036198,2.15279 2.697687,2.15279 1.679356,0 2.67089,-0.77715 2.67089,-2.10813 0,-1.02726 -0.518099,-1.56323 -1.724019,-1.79548 l -1.018332,-0.19652 c -0.955804,-0.18759 -1.232719,-0.37517 -1.232719,-0.84861 0,-0.4913 0.428772,-0.80395 1.125526,-0.80395 0.84861,0 1.322045,0.35731 1.366709,1.01834 z m 9.111396,0.22331 c -0.04466,-0.56276 -0.16079,-0.92007 -0.437705,-1.28631 -0.500233,-0.66102 -1.30418,-1.02727 -2.277848,-1.02727 -1.840145,0 -2.983536,1.31312 -2.983536,3.42124 0,2.0992 1.134458,3.40338 2.947805,3.40338 1.625758,0 2.697687,-0.93794 2.778082,-2.42971 h -1.30418 c -0.08933,0.83075 -0.607427,1.30418 -1.438171,1.30418 -1.036198,0 -1.643625,-0.83967 -1.643625,-2.25998 0,-1.43817 0.634225,-2.29571 1.688288,-2.29571 0.777149,0 1.214853,0.37517 1.393508,1.17018 z m 4.895136,1.34885 v 2.95674 h 1.339911 v -6.51197 h -1.348843 v 2.43864 h -2.572629 v -2.43864 h -1.339911 v 6.51197 h 1.339911 v -2.95674 z m 6.324387,1.64362 0.428772,1.31312 h 1.375642 l -2.251051,-6.51197 h -1.482835 l -2.313579,6.51197 h 1.366709 l 0.437704,-1.31312 z m -0.366242,-1.11659 H 59.2678 l 0.84861,-2.54583 z m 6.90501,2.42971 h 1.339911 v -6.51197 h -1.339911 v 4.43064 L 65.288502,147.1154 H 63.91286 v 6.51197 h 1.339911 v -4.50211 z m 6.44944,0 h 1.339911 v -6.51197 h -1.339911 v 4.43064 L 71.737942,147.1154 H 70.3623 v 6.51197 h 1.339911 v -4.50211 z m 3.930407,-2.80489 h 3.117526 v -1.11659 h -3.117526 v -1.4739 h 3.367643 V 147.1154 H 76.91 v 6.51197 h 4.868343 v -1.1166 h -3.528432 z m 5.967062,-3.70708 h -1.339911 v 6.51197 H 87.3345 v -1.1166 h -3.117527 z" /></g><text
       xml:space="preserve"
       style="font-style:normal;font-variant:normal;font-weight:normal;font-stretch:normal;font-size:8.93274px;line-height:1.35;font-family:'Nimbus Sans';-inkscape-font-specification:'Nimbus Sans';fill:#000036;fill-opacity:1;stroke:#ffb100;stroke-width:0.235;stroke-dasharray:none;stroke-opacity:1"
       x="58.397282"
       y="209.6154"
       id="text1-8"
       transform="rotate(-42.573724)"><tspan
         sodipodi:role="line"
         id="tspan1-9"
         style="font-style:normal;font-variant:normal;font-weight:bold;font-stretch:normal;line-height:1.35;font-family:'Nimbus Sans';-inkscape-font-specification:'Nimbus Sans Bold';fill:#000036;fill-opacity:1;stroke:#ffb100;stroke-width:0.235;stroke-dasharray:none;stroke-opacity:1"
         x="58.397282"
         y="209.6154">DISCUSSIONS CHANNEL</tspan></text></g><style
     type="text/css"
     id="style11610">.st0{fill-rule:evenodd;clip-rule:evenodd;}</style></svg>
