<?xml version="1.0" encoding="UTF-8" standalone="no"?>
<!-- Created with Inkscape (http://www.inkscape.org/) -->

<svg
   width="512"
   height="512"
   viewBox="0 0 135.46666 135.46667"
   version="1.1"
   id="svg5"
   xml:space="preserve"
   inkscape:version="1.2.1 (9c6d41e410, 2022-07-14)"
   sodipodi:docname="logo.svg"
   xmlns:inkscape="http://www.inkscape.org/namespaces/inkscape"
   xmlns:sodipodi="http://sodipodi.sourceforge.net/DTD/sodipodi-0.dtd"
   xmlns:xlink="http://www.w3.org/1999/xlink"
   xmlns="http://www.w3.org/2000/svg"
   xmlns:svg="http://www.w3.org/2000/svg"><sodipodi:namedview
     id="namedview7"
     pagecolor="#ffffff"
     bordercolor="#ffffff"
     borderopacity="1"
     inkscape:showpageshadow="0"
     inkscape:pageopacity="0"
     inkscape:pagecheckerboard="1"
     inkscape:deskcolor="#505050"
     inkscape:document-units="mm"
     showgrid="false"
     inkscape:zoom="1.0352075"
     inkscape:cx="227.00763"
     inkscape:cy="204.78986"
     inkscape:window-width="1920"
     inkscape:window-height="1015"
     inkscape:window-x="0"
     inkscape:window-y="0"
     inkscape:window-maximized="1"
     inkscape:current-layer="layer1" /><defs
     id="defs2"><linearGradient
       inkscape:collect="always"
       id="linearGradient15698"><stop
         style="stop-color:#ffe900;stop-opacity:1;"
         offset="0"
         id="stop15694" /><stop
         style="stop-color:#650000;stop-opacity:1;"
         offset="0.90044248"
         id="stop15696" /></linearGradient><linearGradient
       inkscape:collect="always"
       id="linearGradient15680"><stop
         style="stop-color:#b38407;stop-opacity:1;"
         offset="0.55088496"
         id="stop15676" /><stop
         style="stop-color:#076eb3;stop-opacity:1;"
         offset="0.64159292"
         id="stop15678" /></linearGradient><linearGradient
       id="linearGradient5186"
       inkscape:swatch="gradient"><stop
         style="stop-color:#339d43;stop-opacity:1;"
         offset="0"
         id="stop5182" /><stop
         style="stop-color:#339d43;stop-opacity:0;"
         offset="1"
         id="stop5184" /></linearGradient><linearGradient
       inkscape:collect="always"
       xlink:href="#linearGradient15680"
       id="linearGradient15682"
       x1="7.6293945e-06"
       y1="67.73333"
       x2="135.46667"
       y2="67.73333"
       gradientUnits="userSpaceOnUse"
       gradientTransform="translate(-135.46667)" /><radialGradient
       inkscape:collect="always"
       xlink:href="#linearGradient15698"
       id="radialGradient15700"
       cx="71.402916"
       cy="26.857515"
       fx="71.402916"
       fy="26.857515"
       r="20.946049"
       gradientUnits="userSpaceOnUse" /></defs><g
     inkscape:label="Layer 1"
     inkscape:groupmode="layer"
     id="layer1"><g
       id="g15732"
       inkscape:export-filename="1024px.png"
       inkscape:export-xdpi="192.00002"
       inkscape:export-ydpi="192.00002"><circle
         style="fill:url(#linearGradient15682);fill-opacity:1;stroke-width:8.93338"
         id="path9741"
         cx="-67.73333"
         cy="67.733337"
         r="67.73333"
         transform="rotate(-90)" /><path
         class="st0"
         d="M 93.85057,46.279675 82.424119,60.148384 h 6.946882 l 6.600373,-7.794363 z m 2.575857,5.539971 1.252442,-1.477882 -3.156155,-3.961895 z m 8.813013,8.366311 8.08661,-9.756524 -5.26444,-11.376353 -17.638557,21.132877 z m 8.51661,-10.2742 1.90372,-2.296142 -6.76319,-8.203501 z m 5.75289,-5.873955 -13.20075,16.102239 h 20.61104 z m 8.03233,16.102239 h 6.1829 l -13.42619,-15.835052 7.21824,15.67641 c 0.025,0.05018 0.0334,0.104457 0.025,0.158642 z"
         id="path11612"
         style="fill:#2c2206;fill-opacity:1;stroke-width:0.417481" /><path
         style="fill:#17171b;fill-opacity:1;stroke-width:0.149628"
         d="m 48.560446,115.1448 -0.152989,-0.5611 h -8.147742 -8.14773 v -0.49967 c 0,-1.94162 0.99239,-10.06183 1.876183,-15.351804 0.363503,-2.175813 0.637645,-3.979284 0.609201,-4.007719 -0.09315,-0.09322 -1.443159,3.872923 -2.122269,6.234893 -1.414952,2.85372 -1.835304,8.63371 -2.773217,14.70677 -2.272746,-0.19585 -5.596733,-0.34758 -6.812121,-0.28729 0.01029,-0.71533 0.01499,-0.73685 0.01499,-0.73685 2.457037,-40.208116 15.256677,-58.131446 39.196352,-60.496495 2.47348,-0.244274 2.550373,-0.229833 1.474075,0.279383 -2.903712,1.373711 -4.448683,3.166772 -4.633689,5.377813 -0.215612,2.576704 1.22395,5.387548 5.711165,11.151465 4.414339,5.670318 5.583305,8.011994 5.014259,10.044472 -0.241965,0.864121 -1.149911,1.864974 -2.242576,2.471995 -0.976238,0.542332 -0.455479,0.435779 0.833308,-0.170568 4.090877,-1.924485 4.009975,-4.86872 -0.309602,-11.266687 -3.977602,-5.891407 -4.953264,-7.608396 -5.46879,-9.624092 -0.681658,-2.66525 -0.0127,-4.731371 2.07385,-6.405009 3.85952,-3.09578 8.850022,-2.877153 12.518093,0.54841 1.51286,1.412854 3.288197,3.848224 3.008869,4.127532 -0.05446,0.05452 -1.964823,1.161759 -4.245186,2.460569 -2.280381,1.298835 -4.094204,2.36221 -4.030764,2.363057 0.06344,8.67e-4 2.790439,-0.816236 6.059964,-1.815744 l 5.944594,-1.817288 3.217015,0.564916 c 16.914781,2.970284 24.371691,6.983647 25.422161,13.682381 l 0.12906,0.822968 -0.46064,-0.593057 c -4.13537,-5.32423 -15.963368,-8.807511 -29.878694,-8.79917 -7.495555,0.005 -8.005128,0.125747 -8.005128,1.903544 0,1.013054 0.141829,1.347216 2.145404,5.054554 3.934146,7.279618 1.899432,14.388364 -4.769266,16.662606 -0.891785,0.304098 -3.235302,0.820111 -3.724759,0.820111 -0.05495,0 0.156535,0.521828 0.469839,1.159638 1.046694,2.130636 1.762732,4.795579 2.060398,7.668446 0.162876,1.57188 0.199431,5.1214 0.0582,5.6485 l -0.09021,0.33668 -6.005095,0.004 -6.005101,0.004 1.12222,1.08347 c 6.753995,6.52075 17.359745,9.75216 23.683034,7.21587 3.252311,-1.30449 6.07625,-4.57098 6.762349,-7.82216 l 0.102644,-0.48627 H 87.883858 85.72562 l -0.09611,-2.5812 c -0.289305,-7.771574 -2.297744,-12.6059 -6.165061,-14.839349 -0.408712,-0.236065 -0.767287,-0.449107 -0.796841,-0.473455 -0.02954,-0.02492 0.0905,-0.247019 0.26688,-0.494578 1.40268,-1.969851 2.051565,-6.076321 1.450718,-9.180597 -0.10752,-0.555505 -0.167258,-1.010009 -0.13277,-1.010009 0.03447,0 0.744329,0.339371 1.577431,0.754159 8.706236,4.334753 12.588699,12.105238 12.594168,25.206429 0.0017,4.09748 -0.01369,4.31298 -0.699489,9.80071 -3.471062,6.31634 -30.971744,11.6456 -45.164109,1.16035 z m 9.687576,-9.81274 C 57.39054,93.251745 48.235694,84.743299 40.215417,88.572726 c -1.37672,0.657345 -1.490043,0.824237 -0.379999,0.559689 1.192687,-0.28424 3.424161,-0.213137 4.546119,0.14492 3.351038,1.069358 5.666633,3.687839 9.695945,10.964225 2.086744,3.76838 3.808855,6.41174 4.177125,6.41174 0.04797,0 0.04502,-0.59457 -0.0065,-1.32124 z M 74.290039,61.336378 c -1.400209,-1.093532 -2.990158,-1.287357 -4.581682,-0.558544 -1.730233,0.792359 -1.63199,0.837229 1.832632,0.837229 3.057469,0 3.100318,-0.005 2.74905,-0.278685 z M 69.614091,51.577495 C 60.841484,50.845768 53.34446,44.922237 50.51885,36.490079 49.549671,33.597858 49.20724,29.443732 49.686623,26.394266 c 0.38069,-2.421623 0.461064,-2.408775 0.40451,0.06474 -0.13785,6.028936 1.977322,11.359735 6.189528,15.599346 10.892016,10.962922 29.437828,7.088901 35.15142,-7.34271 1.032667,-2.60833 1.33898,-4.342077 1.347153,-7.624513 0.0078,-3.142966 0.155604,-3.157285 0.546336,-0.05305 0.918037,7.293435 -2.227907,15.051338 -7.985372,19.691969 -3.256554,2.624837 -7.785007,4.514812 -11.465647,4.785257 -2.387843,0.175548 -2.825763,0.181773 -4.26046,0.06225 z"
         id="path1945"
         sodipodi:nodetypes="ccccsssccccccsssscsssscssscsscscsssscsscccssscccssccsssscccscssccccsccssssscsscccs" /><circle
         style="fill:url(#radialGradient15700);fill-opacity:1;stroke-width:8.56283"
         id="path5315"
         cx="71.402916"
         cy="26.857515"
         r="20.946049" /><path
         d="m 70.909557,8.3873574 c 0.876525,-0.4570679 1.946481,0.6032462 1.480778,1.4789586 -0.270451,0.71385 -1.295979,0.903671 -1.819796,0.359535 -0.554988,-0.522202 -0.374016,-1.5543646 0.339018,-1.8384936 m -9.42776,1.0162772 c 0.532472,-0.2191879 1.20649,0.2686372 1.152201,0.8489684 0.05651,0.62999 -0.713842,1.093685 -1.256563,0.794274 C 60.658365,10.768379 60.7406,9.6010888 61.481797,9.4036346 M 80.79097,11.064572 c -0.832087,-0.100541 -0.963792,-1.4087889 -0.162681,-1.6722064 0.621349,-0.3030223 1.191424,0.2652356 1.282301,0.8542054 -0.130293,0.502906 -0.551366,0.963384 -1.11962,0.818001 m -17.164024,2.351664 c 0.89019,-0.56303 2.160432,0.275482 2.023499,1.309446 -0.04625,1.044018 -1.432913,1.648882 -2.215335,0.943075 -0.75647,-0.554383 -0.641856,-1.826227 0.191836,-2.252521 m 13.589369,0.597415 c 0.397134,-1.023508 2.006407,-1.054475 2.458443,-0.05806 0.446806,0.775373 -0.102759,1.735548 -0.898848,1.999158 -1.054476,0.196859 -2.056066,-0.943075 -1.559595,-1.941045 m -7.44207,1.882932 c -0.0086,-0.879734 0.792673,-1.535261 1.628779,-1.595175 0.554578,0.11119 1.159035,0.347461 1.396913,0.907073 0.443393,0.771962 0.04967,1.834882 -0.751446,2.189197 -0.366373,0.205296 -0.799505,0.128282 -1.198449,0.104353 -0.609879,-0.299411 -1.123446,-0.886562 -1.075797,-1.605448 m -14.020497,1.281865 c 0.813183,-0.499882 1.910298,0.412419 1.602438,1.295781 -0.169515,0.764112 -1.196639,1.074985 -1.783809,0.587152 -0.626767,-0.45706 -0.527438,-1.555965 0.181371,-1.882933 m 30.107108,-0.0017 c 0.689929,-0.535691 1.828451,0.07884 1.746205,0.949912 0.04625,0.794274 -0.938046,1.393306 -1.622926,0.984305 -0.75427,-0.339033 -0.831279,-1.499477 -0.123279,-1.934217 m -12.143782,1.581511 c 1.138535,-0.409001 2.490808,0.08043 3.13971,1.095495 0.856006,1.240886 0.400551,3.130664 -0.927801,3.842695 -1.376404,0.842132 -3.386229,0.128291 -3.894566,-1.408789 -0.577105,-1.376005 0.263615,-3.098072 1.682657,-3.529401 m -6.679965,0.135336 c 1.261791,-0.595613 2.959937,-0.09592 3.569417,1.19483 0.717259,1.256361 0.162682,3.005783 -1.11962,3.654483 -1.283918,0.729115 -3.095275,0.17634 -3.716622,-1.172518 -0.696749,-1.30442 -0.07801,-3.076171 1.266825,-3.676795 M 60.3485,21.180375 c 0.09591,-0.812975 0.862847,-1.342022 1.636615,-1.396716 0.833681,0.100541 1.49967,0.748025 1.590356,1.591774 -0.0547,0.835295 -0.700166,1.651688 -1.585344,1.646661 -0.973838,0.08385 -1.827632,-0.884971 -1.641627,-1.841719 M 80.104471,19.96041 c 0.999782,-0.58194 2.388053,0.265227 2.343615,1.413808 0.06857,1.216957 -1.467909,2.074572 -2.463466,1.360731 -1.034162,-0.594399 -0.953531,-2.268416 0.119851,-2.774539 m -15.785799,4.289089 c 1.169295,-0.321731 2.506295,0.229435 3.079777,1.304227 0.628191,1.081821 0.371407,2.584717 -0.604253,3.378187 -1.251326,1.163871 -3.559156,0.696548 -4.225145,-0.891799 -0.765318,-1.456044 0.164288,-3.407344 1.749621,-3.790615 m 12.670014,-0.0059 c 1.136725,-0.32515 2.472118,0.113016 3.083205,1.148589 0.807955,1.184382 0.422267,2.950888 -0.7806,3.714405 -1.259982,0.886562 -3.211701,0.421066 -3.90503,-0.965202 -0.840527,-1.433917 0.0051,-3.46043 1.602425,-3.897792 m -20.19071,1.35128 c 1.010042,-0.382056 2.129673,0.73255 1.720467,1.733939 -0.249951,0.912309 -1.535668,1.249532 -2.199847,0.576904 -0.777184,-0.631598 -0.489435,-2.036969 0.47938,-2.310843 m 27.377409,1.453228 c -0.02917,-0.836903 0.583152,-1.5781 1.441361,-1.624349 0.691728,0.10959 1.364347,0.667601 1.309647,1.420653 0.06334,0.994552 -1.135109,1.670599 -1.982466,1.203275 -0.397133,-0.201886 -0.600839,-0.609278 -0.768542,-0.999579 m -32.34375,-0.961985 c 0.607668,-0.265227 1.359321,0.261407 1.220577,0.936247 -0.03258,0.764112 -1.160652,1.057901 -1.575085,0.419457 -0.366168,-0.443386 -0.146989,-1.127073 0.354508,-1.355704 z m 38.314904,-0.01525 c 0.427905,-0.304631 1.114407,-0.08566 1.28391,0.414237 0.287556,0.545938 -0.23969,1.293963 -0.854204,1.201675 -0.862641,0.07859 -1.141736,-1.23606 -0.429706,-1.615912 m -22.527294,3.667955 c 1.599011,-0.415838 3.31786,0.917537 3.327917,2.564005 0.104362,1.663745 -1.588556,3.139093 -3.225365,2.754833 -1.265207,-0.203696 -2.257961,-1.422463 -2.216941,-2.700951 -0.0034,-1.222772 0.919356,-2.359304 2.114389,-2.617887 m 6.332499,-0.0034 c 1.622935,-0.453649 3.393067,0.903655 3.36733,2.588128 0.08565,1.632995 -1.554369,3.058667 -3.157002,2.734724 -1.508122,-0.195058 -2.620907,-1.851974 -2.199846,-3.315458 0.21254,-0.975248 1.027326,-1.768316 1.989518,-2.007394 m -12.209542,1.013445 c 1.123047,-0.191631 2.17592,1.061312 1.720457,2.127658 -0.332175,1.136315 -1.985884,1.444591 -2.717026,0.516379 -0.857619,-0.891388 -0.217368,-2.520974 0.996569,-2.644037 m 18.570986,0.0501 c 1.001395,-0.419465 2.230617,0.446805 2.153599,1.533653 0.04021,1.196447 -1.477351,2.021478 -2.456621,1.32312 -1.109177,-0.626974 -0.907284,-2.472111 0.303022,-2.856773 m 5.190758,5.206434 c -0.392111,-0.73095 0.320127,-1.699755 1.13169,-1.564427 0.403978,-0.0067 0.686502,0.311468 0.945095,0.578513 0.05308,0.43314 0.142162,0.949912 -0.217381,1.2837 -0.488218,0.617934 -1.59418,0.441601 -1.859404,-0.297786 m -29.753604,-1.36094 c 0.758485,-0.504909 1.849964,0.248135 1.679435,1.134924 -0.09069,0.784212 -1.078599,1.232432 -1.729305,0.787437 -0.698364,-0.403982 -0.672627,-1.55418 0.04987,-1.922361 m 14.984678,1.641651 c 0.992948,-0.438166 2.257963,0.426285 2.163847,1.519971 0.07361,1.20852 -1.491025,2.045423 -2.461845,1.31971 -1.078416,-0.623154 -0.898652,-2.456436 0.297998,-2.839681 m -6.94037,1.619104 c 0.845753,-0.444994 1.980668,0.323541 1.90366,1.270051 0.02573,0.777174 -0.732759,1.439539 -1.499682,1.324729 -0.635228,-0.01366 -1.049455,-0.583146 -1.253148,-1.12466 0.01046,-0.590176 0.253357,-1.247505 0.84917,-1.47012 m 14.058503,0.01366 c 0.869675,-0.537492 2.10573,0.234462 2.023499,1.246709 0.02232,1.057901 -1.374605,1.735539 -2.184373,1.0406 -0.784017,-0.544723 -0.688309,-1.854178 0.160874,-2.287309 m 2.444764,6.043941 c -0.386885,-0.585367 0.06856,-1.290553 0.696746,-1.42408 0.505119,0.102761 1.039197,0.482605 0.933024,1.068156 -0.0736,0.792473 -1.232637,1.035581 -1.62977,0.355924 M 60.891221,43.454563 c 0.154027,-0.463897 0.527234,-0.924969 1.073372,-0.804337 0.796089,0.05655 1.032361,1.256369 0.335613,1.626168 -0.626574,0.422481 -1.35349,-0.156032 -1.408985,-0.821831 m 9.362608,0.532272 c 0.152421,-0.686301 1.0408,-1.020097 1.626354,-0.655536 0.386885,0.166094 0.499902,0.599041 0.599231,0.967004 -0.05309,0.191631 -0.100548,0.38348 -0.147194,0.575112 -0.23969,0.28412 -0.547745,0.568258 -0.9467,0.557994 -0.741391,0.08687 -1.410193,-0.751243 -1.131691,-1.444574"
         id="path10172"
         style="fill:#17171b;fill-opacity:1;stroke-width:0.0201084" /></g></g><style
     type="text/css"
     id="style11610">.st0{fill-rule:evenodd;clip-rule:evenodd;}</style></svg>
