<?xml version="1.0" encoding="UTF-8" standalone="no"?>
<!-- Created with Inkscape (http://www.inkscape.org/) -->

<svg
   width="512"
   height="512"
   viewBox="0 0 135.46666 135.46667"
   version="1.1"
   id="svg5"
   xml:space="preserve"
   inkscape:version="1.2.1 (9c6d41e410, 2022-07-14)"
   sodipodi:docname="logo.svg"
   xmlns:inkscape="http://www.inkscape.org/namespaces/inkscape"
   xmlns:sodipodi="http://sodipodi.sourceforge.net/DTD/sodipodi-0.dtd"
   xmlns:xlink="http://www.w3.org/1999/xlink"
   xmlns="http://www.w3.org/2000/svg"
   xmlns:svg="http://www.w3.org/2000/svg"><sodipodi:namedview
     id="namedview7"
     pagecolor="#ffffff"
     bordercolor="#ffffff"
     borderopacity="1"
     inkscape:showpageshadow="0"
     inkscape:pageopacity="0"
     inkscape:pagecheckerboard="1"
     inkscape:deskcolor="#505050"
     inkscape:document-units="mm"
     showgrid="false"
     inkscape:zoom="1.0195505"
     inkscape:cx="93.178315"
     inkscape:cy="144.18118"
     inkscape:window-width="1920"
     inkscape:window-height="1015"
     inkscape:window-x="0"
     inkscape:window-y="0"
     inkscape:window-maximized="1"
     inkscape:current-layer="layer1" /><defs
     id="defs2"><linearGradient
       inkscape:collect="always"
       id="linearGradient15698"><stop
         style="stop-color:#ffe900;stop-opacity:1;"
         offset="0"
         id="stop15694" /><stop
         style="stop-color:#650000;stop-opacity:1;"
         offset="0.90044248"
         id="stop15696" /></linearGradient><linearGradient
       inkscape:collect="always"
       id="linearGradient15680"><stop
         style="stop-color:#b38407;stop-opacity:1;"
         offset="0.55088496"
         id="stop15676" /><stop
         style="stop-color:#076eb3;stop-opacity:1;"
         offset="0.64159292"
         id="stop15678" /></linearGradient><linearGradient
       id="linearGradient5186"
       inkscape:swatch="gradient"><stop
         style="stop-color:#339d43;stop-opacity:1;"
         offset="0"
         id="stop5182" /><stop
         style="stop-color:#339d43;stop-opacity:0;"
         offset="1"
         id="stop5184" /></linearGradient><linearGradient
       inkscape:collect="always"
       xlink:href="#linearGradient15680"
       id="linearGradient15682"
       x1="7.6293945e-06"
       y1="67.73333"
       x2="135.46667"
       y2="67.73333"
       gradientUnits="userSpaceOnUse"
       gradientTransform="translate(-39.448051,-165.30773)" /><radialGradient
       inkscape:collect="always"
       xlink:href="#linearGradient15698"
       id="radialGradient15700"
       cx="71.402916"
       cy="26.857515"
       fx="71.402916"
       fy="26.857515"
       r="20.946049"
       gradientUnits="userSpaceOnUse"
       gradientTransform="translate(-165.30773,-96.018619)" /></defs><g
     inkscape:label="Layer 1"
     inkscape:groupmode="layer"
     id="layer1"><circle
       style="fill:url(#linearGradient15682);fill-opacity:1;stroke-width:8.93338"
       id="path9741"
       cx="28.28529"
       cy="-97.574394"
       r="67.73333"
       transform="rotate(-90)" /><path
       class="st0"
       d="m -71.45716,-49.738944 -11.426451,13.868709 h 6.946882 l 6.600373,-7.794363 z m 2.575857,5.539971 1.252442,-1.477882 -3.156155,-3.961895 z m 8.813013,8.366311 8.08661,-9.756524 -5.26444,-11.376353 -17.638557,21.132877 z m 8.51661,-10.2742 1.90372,-2.296142 -6.76319,-8.203501 z m 5.75289,-5.873955 -13.20075,16.102239 h 20.61104 z m 8.03233,16.102239 h 6.1829 l -13.42619,-15.835052 7.21824,15.67641 c 0.025,0.05018 0.0334,0.104457 0.025,0.158642 z"
       id="path11612"
       style="fill:#2c2206;fill-opacity:1;stroke-width:0.417481" /><path
       style="fill:#17171b;fill-opacity:1;stroke-width:0.149628"
       d="m -116.74728,19.126181 -0.15299,-0.5611 h -8.14775 -8.14773 v -0.49967 c 0,-1.94162 0.99239,-10.0618299 1.87619,-15.3518039 0.3635,-2.17581302 0.63764,-3.979284 0.6092,-4.007719 -0.0931,-0.09322 -1.44316,3.872923 -2.12227,6.234893 -1.41495,2.85372 -1.8353,8.6337099 -2.77322,14.7067699 -2.27274,-0.19585 -5.59673,-0.34758 -6.81212,-0.28729 0.0103,-0.71533 0.015,-0.73685 0.015,-0.73685 2.45704,-40.208116 15.25668,-58.131446 39.19635,-60.496495 2.47348,-0.244274 2.55038,-0.229833 1.47408,0.279383 -2.90371,1.373711 -4.44868,3.166772 -4.63369,5.377813 -0.21561,2.576704 1.22395,5.387548 5.71116,11.151465 4.414344,5.670318 5.58331,8.011994 5.014264,10.044472 -0.241965,0.864121 -1.149911,1.864974 -2.242576,2.471995 -0.976238,0.542332 -0.455479,0.435779 0.833308,-0.170568 4.090877,-1.924485 4.009975,-4.86872 -0.309602,-11.266687 -3.977604,-5.891407 -4.953264,-7.608396 -5.468794,-9.624092 -0.68165,-2.66525 -0.0127,-4.731371 2.07385,-6.405009 3.859524,-3.09578 8.850026,-2.877153 12.518097,0.54841 1.51286,1.412854 3.288197,3.848224 3.008869,4.127532 -0.05446,0.05452 -1.964823,1.161759 -4.245186,2.460569 -2.280381,1.298835 -4.094204,2.36221 -4.030764,2.363057 0.06344,8.67e-4 2.790439,-0.816236 6.059964,-1.815744 l 5.944594,-1.817288 3.217015,0.564916 c 16.914781,2.970284 24.371691,6.983647 25.422161,13.682381 l 0.12906,0.822968 -0.46064,-0.593057 c -4.13537,-5.32423 -15.963368,-8.807511 -29.878694,-8.79917 -7.495555,0.005 -8.005128,0.125747 -8.005128,1.903544 0,1.013054 0.141829,1.347216 2.145404,5.054554 3.934146,7.279618 1.899432,14.3883641 -4.769266,16.6626061 -0.891785,0.304098 -3.235302,0.820111 -3.724759,0.820111 -0.05495,0 0.156535,0.521828 0.469839,1.159638 1.046694,2.13063598 1.762732,4.795579 2.060398,7.668446 0.162876,1.57188 0.199431,5.1214 0.0582,5.6484999 l -0.09021,0.33668 -6.005094,0.004 -6.0051,0.004 1.12222,1.08347 c 6.753993,6.52075 17.359743,9.75216 23.683032,7.21587 3.252311,-1.30449 6.07625,-4.57098 6.762349,-7.82216 l 0.102644,-0.48627 h -2.158247 -2.158238 l -0.09611,-2.5811999 c -0.289305,-7.77157402 -2.297744,-12.6059 -6.165061,-14.839349 -0.408712,-0.236065 -0.767287,-0.449107 -0.796841,-0.473455 -0.02954,-0.02492 0.0905,-0.247019 0.26688,-0.494578 1.40268,-1.969851 2.051565,-6.0763211 1.450718,-9.1805971 -0.10752,-0.555505 -0.167258,-1.010009 -0.13277,-1.010009 0.03447,0 0.744329,0.339371 1.577431,0.754159 8.706236,4.334753 12.588699,12.1052381 12.594168,25.2064291 0.0017,4.0974799 -0.01369,4.3129799 -0.699489,9.8007099 -3.471062,6.31634 -30.971746,11.6456 -45.164106,1.16035 z m 9.68757,-9.8127399 c -0.85748,-12.080315 -10.01233,-20.5887611 -18.0326,-16.759334 -1.37672,0.657345 -1.49005,0.824237 -0.38,0.559689 1.19268,-0.28424 3.42416,-0.213137 4.54612,0.14492 3.35103,1.069358 5.66663,3.687839 9.69594,10.964225 2.08675,3.76838 3.80886,6.4117399 4.17713,6.4117399 0.048,0 0.045,-0.59457 -0.006,-1.3212399 z m 16.042019,-43.9956821 c -1.400209,-1.093532 -2.990158,-1.287357 -4.581682,-0.558544 -1.730233,0.792359 -1.63199,0.837229 1.832632,0.837229 3.057469,0 3.100318,-0.005 2.74905,-0.278685 z m -4.675948,-9.758883 c -8.772611,-0.731727 -16.269631,-6.655258 -19.095241,-15.087416 -0.96918,-2.892221 -1.31161,-7.046347 -0.83223,-10.095813 0.38069,-2.421623 0.46107,-2.408775 0.40451,0.06474 -0.13785,6.028936 1.97732,11.359735 6.18953,15.599346 10.892017,10.962922 29.437829,7.088901 35.151421,-7.34271 1.032667,-2.60833 1.33898,-4.342077 1.347153,-7.624513 0.0078,-3.142966 0.155604,-3.157285 0.546336,-0.05305 0.918037,7.293435 -2.227907,15.051338 -7.985372,19.691969 -3.256554,2.624837 -7.785007,4.514812 -11.465647,4.785257 -2.387843,0.175548 -2.825763,0.181773 -4.26046,0.06225 z"
       id="path1945"
       sodipodi:nodetypes="ccccsssccccccsssscsssscssscsscscsssscsscccssscccssccsssscccscssccccsccssssscsscccs" /><circle
       style="fill:url(#radialGradient15700);fill-opacity:1;stroke-width:8.56283"
       id="path5315"
       cx="-93.904816"
       cy="-69.161102"
       r="20.946049" /><path
       d="m -94.398173,-87.631262 c 0.876525,-0.457067 1.946481,0.603247 1.480778,1.478959 -0.270451,0.71385 -1.295979,0.903671 -1.819796,0.359535 -0.554988,-0.522202 -0.374016,-1.554365 0.339018,-1.838494 m -9.427757,1.016278 c 0.53247,-0.219188 1.20649,0.268637 1.1522,0.848968 0.0565,0.62999 -0.71384,1.093685 -1.25657,0.794274 -0.71907,-0.278498 -0.63683,-1.445788 0.10437,-1.643242 m 19.30917,1.660937 c -0.832087,-0.100541 -0.963792,-1.408789 -0.162681,-1.672206 0.621349,-0.303023 1.191424,0.265235 1.282301,0.854205 -0.130293,0.502906 -0.551366,0.963384 -1.11962,0.818001 m -17.16402,2.351664 c 0.89019,-0.56303 2.160428,0.275482 2.023495,1.309446 -0.04625,1.044018 -1.432915,1.648882 -2.215335,0.943075 -0.75647,-0.554383 -0.64186,-1.826227 0.19184,-2.252521 m 13.589365,0.597415 c 0.397134,-1.023508 2.006407,-1.054475 2.458443,-0.05806 0.446806,0.775373 -0.102759,1.735548 -0.898848,1.999158 -1.054476,0.196859 -2.056066,-0.943075 -1.559595,-1.941045 m -7.44207,1.882932 c -0.0086,-0.879734 0.792673,-1.535261 1.628779,-1.595175 0.554578,0.11119 1.159035,0.347461 1.396913,0.907073 0.443393,0.771962 0.04967,1.834882 -0.751446,2.189197 -0.366373,0.205296 -0.799505,0.128282 -1.198449,0.104353 -0.609879,-0.299411 -1.123446,-0.886562 -1.075797,-1.605448 m -14.020495,1.281865 c 0.81318,-0.499882 1.9103,0.412419 1.60244,1.295781 -0.16952,0.764112 -1.19664,1.074985 -1.78381,0.587152 -0.62677,-0.45706 -0.52744,-1.555965 0.18137,-1.882933 m 30.107106,-0.0017 c 0.689929,-0.535691 1.828451,0.07884 1.746205,0.949912 0.04625,0.794274 -0.938046,1.393306 -1.622926,0.984305 -0.75427,-0.339033 -0.831279,-1.499477 -0.123279,-1.934217 m -12.143782,1.581511 c 1.138535,-0.409001 2.490808,0.08043 3.13971,1.095495 0.856006,1.240886 0.400551,3.130664 -0.927801,3.842695 -1.376404,0.842132 -3.386229,0.128291 -3.894566,-1.408789 -0.577105,-1.376005 0.263615,-3.098072 1.682657,-3.529401 m -6.679965,0.135336 c 1.261791,-0.595613 2.959937,-0.09592 3.569417,1.19483 0.717259,1.256361 0.162682,3.005783 -1.11962,3.654483 -1.283918,0.729115 -3.095275,0.17634 -3.716622,-1.172518 -0.696754,-1.30442 -0.07801,-3.076171 1.266825,-3.676795 m -6.688609,2.286727 c 0.0959,-0.812975 0.86285,-1.342022 1.63661,-1.396716 0.83369,0.100541 1.49967,0.748025 1.59036,1.591774 -0.0547,0.835295 -0.70017,1.651688 -1.58534,1.646661 -0.97384,0.08385 -1.82764,-0.884971 -1.64163,-1.841719 m 19.755971,-1.219965 c 0.999782,-0.58194 2.388053,0.265227 2.343615,1.413808 0.06857,1.216957 -1.467909,2.074572 -2.463466,1.360731 -1.034162,-0.594399 -0.953531,-2.268416 0.119851,-2.774539 m -15.785801,4.289089 c 1.169297,-0.321731 2.506297,0.229435 3.079779,1.304227 0.628191,1.081821 0.371407,2.584717 -0.604253,3.378187 -1.251326,1.163871 -3.559156,0.696548 -4.225146,-0.891799 -0.76532,-1.456044 0.16429,-3.407344 1.74962,-3.790615 m 12.670016,-0.0059 c 1.136725,-0.32515 2.472118,0.113016 3.083205,1.148589 0.807955,1.184382 0.422267,2.950888 -0.7806,3.714405 -1.259982,0.886562 -3.211701,0.421066 -3.90503,-0.965202 -0.840527,-1.433917 0.0051,-3.46043 1.602425,-3.897792 m -20.190706,1.35128 c 1.01004,-0.382056 2.12967,0.73255 1.72046,1.733939 -0.24995,0.912309 -1.53567,1.249532 -2.19984,0.576904 -0.77719,-0.631598 -0.48944,-2.036969 0.47938,-2.310843 m 27.377405,1.453228 c -0.02917,-0.836903 0.583152,-1.5781 1.441361,-1.624349 0.691728,0.10959 1.364347,0.667601 1.309647,1.420653 0.06334,0.994552 -1.135109,1.670599 -1.982466,1.203275 -0.397133,-0.201886 -0.600839,-0.609278 -0.768542,-0.999579 m -32.343755,-0.961985 c 0.60767,-0.265227 1.35933,0.261407 1.22058,0.936247 -0.0326,0.764112 -1.16065,1.057901 -1.57508,0.419457 -0.36617,-0.443386 -0.14699,-1.127073 0.3545,-1.355704 z m 38.314909,-0.01525 c 0.427905,-0.304631 1.114407,-0.08566 1.28391,0.414237 0.287556,0.545938 -0.23969,1.293963 -0.854204,1.201675 -0.862641,0.07859 -1.141736,-1.23606 -0.429706,-1.615912 m -22.527294,3.667955 c 1.599011,-0.415838 3.31786,0.917537 3.327917,2.564005 0.104362,1.663745 -1.588556,3.139093 -3.225365,2.754833 -1.265207,-0.203696 -2.257961,-1.422463 -2.216941,-2.700951 -0.0034,-1.222772 0.919356,-2.359304 2.114389,-2.617887 m 6.332499,-0.0034 c 1.622935,-0.453649 3.393067,0.903655 3.36733,2.588128 0.08565,1.632995 -1.554369,3.058667 -3.157002,2.734724 -1.508122,-0.195058 -2.620907,-1.851974 -2.199846,-3.315458 0.21254,-0.975248 1.027326,-1.768316 1.989518,-2.007394 m -12.209544,1.013445 c 1.12305,-0.191631 2.17592,1.061312 1.72046,2.127658 -0.33218,1.136315 -1.98589,1.444591 -2.71703,0.516379 -0.85762,-0.891388 -0.21737,-2.520974 0.99657,-2.644037 m 18.570988,0.0501 c 1.001395,-0.419465 2.230617,0.446805 2.153599,1.533653 0.04021,1.196447 -1.477351,2.021478 -2.456621,1.32312 -1.109177,-0.626974 -0.907284,-2.472111 0.303022,-2.856773 m 5.190758,5.206434 c -0.392111,-0.73095 0.320127,-1.699755 1.13169,-1.564427 0.403978,-0.0067 0.686502,0.311468 0.945095,0.578513 0.05308,0.43314 0.142162,0.949912 -0.217381,1.2837 -0.488218,0.617934 -1.59418,0.441601 -1.859404,-0.297786 m -29.753606,-1.36094 c 0.75849,-0.504909 1.84997,0.248135 1.67944,1.134924 -0.0907,0.784212 -1.0786,1.232432 -1.72931,0.787437 -0.69836,-0.403982 -0.67263,-1.55418 0.0499,-1.922361 m 14.98468,1.641651 c 0.992948,-0.438166 2.257963,0.426285 2.163847,1.519971 0.07361,1.20852 -1.491025,2.045423 -2.461845,1.31971 -1.078416,-0.623154 -0.898652,-2.456436 0.297998,-2.839681 m -6.94037,1.619104 c 0.84575,-0.444994 1.980668,0.323541 1.90366,1.270051 0.02573,0.777174 -0.73276,1.439539 -1.49968,1.324729 -0.63523,-0.01366 -1.04946,-0.583146 -1.25315,-1.12466 0.0105,-0.590176 0.25336,-1.247505 0.84917,-1.47012 m 14.058503,0.01366 c 0.869675,-0.537492 2.10573,0.234462 2.023499,1.246709 0.02232,1.057901 -1.374605,1.735539 -2.184373,1.0406 -0.784017,-0.544723 -0.688309,-1.854178 0.160874,-2.287309 m 2.444764,6.043941 c -0.386885,-0.585367 0.06856,-1.290553 0.696746,-1.42408 0.505119,0.102761 1.039197,0.482605 0.933024,1.068156 -0.0736,0.792473 -1.232637,1.035581 -1.62977,0.355924 m -19.406697,-0.508259 c 0.15403,-0.463897 0.52723,-0.924969 1.07337,-0.804337 0.79609,0.05655 1.03236,1.256369 0.33562,1.626168 -0.62658,0.422481 -1.35349,-0.156032 -1.40899,-0.821831 m 9.362609,0.532272 c 0.152421,-0.686301 1.0408,-1.020097 1.626354,-0.655536 0.386885,0.166094 0.499902,0.599041 0.599231,0.967004 -0.05309,0.191631 -0.100548,0.38348 -0.147194,0.575112 -0.23969,0.28412 -0.547745,0.568258 -0.9467,0.557994 -0.741391,0.08687 -1.410193,-0.751243 -1.131691,-1.444574"
       id="path10172"
       style="fill:#17171b;fill-opacity:1;stroke-width:0.0201084" /><g
       id="g5830"
       inkscape:export-filename="21024px.png"
       inkscape:export-xdpi="196.608"
       inkscape:export-ydpi="196.608"><ellipse
         style="fill:#ffffff;fill-opacity:1;stroke:#000036;stroke-width:1.27932;stroke-dasharray:none;stroke-opacity:1"
         id="path9741-3"
         cx="-66.145844"
         cy="66.145844"
         transform="rotate(-90)"
         rx="65.506165"
         ry="65.506172" /><g
         id="g5059"
         transform="matrix(1.0152582,0,0,1.0152582,-4.0318517,-3.5133193)"><g
           id="g4119"
           transform="matrix(0.09651537,0,0,0.09651537,7.9145514,-13.977935)"><path
             style="fill:#000036;fill-opacity:1;stroke:#ffb100;stroke-width:4;stroke-linecap:butt;stroke-linejoin:miter;stroke-dasharray:none;stroke-opacity:1"
             d="m 915.36095,459.82 c 58.83662,-39.90576 145.45955,-27.15962 267.60045,41.89473 0.058,-0.52495 -124.5372,-127.22728 -302.54604,-68.10393 C 746.92568,421.1587 787.36964,501.24123 733.69521,538.91607 458.9892,320.70745 141.47901,534.97912 33.67661,675.07353 22.819153,689.18332 18.514423,709.0901 16.897859,719.28662 c -1.838369,11.59556 -4.5395,4.90289 0.601337,46.14024 L 62.238831,726.56674 C 419.61348,433.3086 538.1008,449.93483 667.53242,517.76553 351.83617,349.48045 16.593264,866.54528 52.187786,932.19376 l 24.340649,-9.96347 C 115.82461,807.16538 250.97923,690.29874 293.1152,653.98208 c -27.35209,30.90428 -84.30976,91.05745 -104.20403,121.96173 6.08239,-0.14555 12.16478,-0.53004 18.24717,-5.33832 26.23155,-39.83971 91.86683,-83.42922 126.60787,-113.05753 -21.65625,24.94952 -63.94282,60.26598 -82.01521,87.00743 9.03356,0.75114 20.91983,0.36008 29.95339,-0.71318 40.19995,-36.96938 92.04846,-71.56161 130.51114,-99.84459 -23.77252,26.38442 -58.24268,54.5944 -82.0152,84.51131 20.22587,5.14545 41.50855,3.7471 54.91453,4.63565 32.54873,-21.93506 60.49482,-51.97424 86.29425,-75.59662 l -38.51149,68.46486 c 46.72168,-15.42511 76.13085,-45.2773 112.68176,-69.17804 -20.45256,22.81957 -39.83659,45.90628 -52.775,70.60439 48.88874,-7.97928 61.92907,-39.8575 90.57331,-61.33311 -15.6783,21.64457 -35.74956,38.89617 -46.35642,65.61217 l 20.68209,11.41081 c 23.56314,-27.80283 42.48602,-42.01845 64.18582,-54.91453 -30.10527,22.57221 -34.83701,47.58997 -40.65102,72.03074 125.32269,57.29297 166.42313,215.7359 203.25506,340.89795 0.66709,-22.8629 12.29825,-46.5825 10.512,-69.804 -3.30134,-42.91789 -30.77872,-158.40675 -61.27584,-281.11516 -22.42857,-90.24372 -15.48031,-128.35628 12.25236,-198.93926 -23.82469,59.84785 -7.04169,166.53288 41.28329,287.70542 6.22827,15.61707 24.00956,99.51051 25.75522,179.4246 50.77837,-163.9312 29.4592,-295.92046 -25.67432,-412.92867 51.25893,1.05281 64.21006,15.84429 66.65658,18.71562 59.59681,86.48595 13.72332,229.68626 -11.02888,362.83336 54.83571,-120.27298 70.31528,-197.18598 73.04414,-262.0946 C 918.08744,675.71146 885.2483,622.64124 884.08169,563.381 882.75606,496.04298 907.6458,471.12397 915.36095,459.82 Z"
             id="path770"
             sodipodi:nodetypes="ccccssccccccccccccccccccccccccsscsccccssc" /><path
             style="fill:#000036;fill-opacity:1;stroke:#ffb100;stroke-width:4;stroke-linecap:butt;stroke-linejoin:miter;stroke-dasharray:none;stroke-opacity:1"
             d="M 921.42295,728.86552 C 1035.9816,1256.4849 799.12994,1534.1563 497.79661,1459.1574 728.99345,1392.0547 964.52247,1333.4408 921.42295,728.86552 Z"
             id="path1480"
             sodipodi:nodetypes="ccc" /><path
             style="fill:#000036;fill-opacity:1;stroke:#ffb100;stroke-width:4;stroke-linecap:butt;stroke-linejoin:miter;stroke-dasharray:none;stroke-opacity:1"
             d="m 898.60133,1041.2364 c -39.59852,352.2789 -369.45853,431.7844 -577.67228,373.7041 46.93415,-15.3693 62.6064,-10.6417 91.82136,-14.6201 -33.4248,-6.7227 -71.63523,-12.805 -104.12364,-33.341 459.45402,24.917 589.97456,-325.743 589.97456,-325.743 z"
             id="path1482"
             sodipodi:nodetypes="ccccc" /><path
             style="fill:#000036;fill-opacity:1;stroke:#ffb100;stroke-width:4;stroke-linecap:butt;stroke-linejoin:miter;stroke-dasharray:none;stroke-opacity:1"
             d="M 902.88038,868.64795 C 891.41144,1214.6447 643.62017,1343.3348 348.02973,1331.4989 628.12499,1302.9182 851.31368,1209.4069 902.88038,868.64795 Z"
             id="path1484"
             sodipodi:nodetypes="ccc" /><ellipse
             style="fill:none;stroke:#ffb100;stroke-width:5.07096;stroke-dasharray:none;stroke-opacity:1"
             id="path1705"
             cx="479.90091"
             cy="719.21326"
             rx="12.691538"
             ry="5.5780897"
             transform="matrix(0.94670062,-0.3221148,0.53480597,0.84497489,0,0)" /><g
             id="g4048"
             transform="matrix(0.90658148,0,0,0.90658148,60.321301,89.833979)"><circle
               style="opacity:1;fill:#000036;fill-opacity:1;stroke-width:112.352"
               id="path5315-3"
               cx="401.41592"
               cy="1022.7028"
               r="274.83121" /><path
               d="m 394.94255,780.35762 c 11.50081,-5.99714 25.53961,7.91512 19.42915,19.40527 -3.54857,9.36637 -17.00443,11.85698 -23.87738,4.71745 -7.28194,-6.85178 -4.90742,-20.3947 4.44823,-24.12272 m -123.70079,13.33449 c 6.98651,-2.87596 15.83024,3.52476 15.11791,11.13924 0.74149,8.26603 -9.36624,14.35013 -16.48724,10.4216 -9.43487,-3.65415 -8.35587,-18.97007 1.36933,-21.56084 m 253.35391,21.79301 c -10.91772,-1.31919 -12.64583,-18.4846 -2.13453,-21.94086 8.15268,-3.97596 15.63256,3.48011 16.82498,11.20794 -1.70958,6.59859 -7.23445,12.64045 -14.69045,10.73292 m -225.2076,30.85595 c 11.68011,-7.3874 28.34682,3.6146 26.55015,17.1811 -0.60684,13.6985 -18.80115,21.6349 -29.06722,12.374 -9.92557,-7.274 -8.42172,-23.9617 2.51707,-29.5551 m 178.30486,7.8386 c 5.21077,-13.4293 26.32589,-13.8356 32.25704,-0.7618 5.86248,10.1737 -1.34829,22.772 -11.7937,26.2308 -13.83572,2.583 -26.97747,-12.374 -20.46334,-25.4683 m -97.64673,24.7058 c -0.11282,-11.5429 10.40059,-20.144 21.37108,-20.9301 7.27656,1.4589 15.20758,4.559 18.32877,11.9016 5.81773,10.1288 0.65171,24.0753 -9.85966,28.7242 -4.80715,2.6937 -10.49022,1.6832 -15.72473,1.3693 -8.00219,-3.9286 -14.74065,-11.6326 -14.11546,-21.065 m -183.96165,16.8193 c 10.66971,-6.559 25.06483,5.4113 21.02544,17.0018 -2.2242,10.0258 -15.70099,14.1047 -23.40521,7.704 -8.22374,-5.9971 -6.92044,-20.4157 2.37977,-24.7058 m 395.03266,-0.021 c 9.05247,-7.0287 23.99093,1.0345 22.91179,12.4637 0.60683,10.4216 -12.30805,18.2815 -21.29428,12.915 -9.8967,-4.4484 -10.90713,-19.6745 -1.61751,-25.3787 m -159.33747,20.7509 c 14.9386,-5.3665 32.68164,1.0553 41.19585,14.3739 11.23154,16.2815 5.25558,41.0771 -12.1736,50.4196 -18.05968,11.0496 -44.43042,1.6833 -51.10025,-18.4845 -7.57216,-18.0545 3.45887,-40.6496 22.078,-46.309 m -87.64725,1.7757 c 16.55587,-7.8149 38.83709,-1.2585 46.834,15.6773 9.41109,16.4846 2.13453,39.4386 -14.69042,47.9501 -16.84616,9.5667 -40.61283,2.3138 -48.76547,-15.3845 -9.14198,-17.1152 -1.02356,-40.3621 16.62189,-48.2429 m -87.76062,30.004 c 1.25844,-10.667 11.32135,-17.6086 21.47387,-18.3262 10.93865,1.3192 19.67705,9.8148 20.86693,20.8855 -0.71771,10.9598 -9.18682,21.6717 -20.80115,21.6057 -12.77765,1.1002 -23.98021,-11.6116 -21.53965,-24.165 m 259.21631,-16.0071 c 13.11804,-7.6356 31.33342,3.48 30.75037,18.5505 0.8997,15.9675 -19.26032,27.2202 -32.32292,17.854 -13.56913,-7.7991 -12.51121,-29.7637 1.57255,-36.4045 m -207.12403,56.2768 c 15.34221,-4.2214 32.88487,3.0104 40.40947,17.11263 8.24242,14.1945 4.87319,33.9138 -7.92835,44.3249 -16.41853,15.2711 -46.69937,9.1394 -55.43773,-11.7012 -10.04171,-19.1046 2.1556,-44.70753 22.95661,-49.73633 m 166.24208,-0.077 c 14.91489,-4.2662 32.43645,1.4829 40.45446,15.07063 10.60112,15.5402 5.54053,38.7183 -10.24218,48.7364 -16.53209,11.6325 -42.14043,5.5247 -51.23755,-12.6644 -11.02846,-18.8142 0.067,-45.40403 21.02527,-51.14263 m -264.92046,17.73013 c 13.25267,-5.0129 27.94326,9.6117 22.57409,22.7508 -3.2796,11.9704 -20.14937,16.395 -28.86399,7.5696 -10.19737,-8.2872 -6.42186,-26.7269 6.2899,-30.3204 m 359.2165,19.0677 c -0.38274,-10.981 7.65149,-20.7062 18.91196,-21.313 9.07612,1.4379 17.90148,8.7595 17.18377,18.6403 0.83109,13.0494 -14.89364,21.9198 -26.01174,15.788 -5.21077,-2.6489 -7.88356,-7.9942 -10.08399,-13.1153 m -424.3794,-12.6222 c 7.97313,-3.48 17.83552,3.4299 16.01507,12.2844 -0.42749,10.0259 -15.22883,13.8807 -20.66656,5.5037 -4.80445,-5.8176 -1.92863,-14.7882 4.65149,-17.7881 z m 502.72637,-0.1999 c 5.61451,-3.9971 14.62203,-1.1239 16.84609,5.4351 3.77302,7.1633 -3.14497,16.978 -11.20794,15.7671 -11.31865,1.0312 -14.98061,-16.2182 -5.63815,-21.2022 m -295.57859,48.1269 c 20.98049,-5.4562 43.53336,12.0391 43.66532,33.6423 1.36932,21.8296 -20.8433,41.1875 -42.31974,36.1457 -16.60065,-2.6728 -29.62652,-18.6639 -29.08828,-35.4389 -0.0448,-16.0438 12.06278,-30.9563 27.7427,-34.3491 m 83.08816,-0.044 c 21.2944,-5.9523 44.52013,11.8568 44.18241,33.9585 1.12382,21.4263 -20.39473,40.1325 -41.42271,35.8819 -19.78794,-2.5593 -34.38869,-24.2993 -28.86399,-43.5016 2.78872,-12.7962 13.47946,-23.2019 26.10429,-26.3388 m -160.20029,13.2971 c 14.73537,-2.5144 28.55005,13.9255 22.57394,27.917 -4.35842,14.9094 -26.05659,18.9541 -35.64983,6.7752 -11.25276,-11.6958 -2.85207,-33.0775 13.07589,-34.6922 m 243.66822,0.6575 c 13.13921,-5.5038 29.26772,5.8625 28.25718,20.123 0.52758,15.6985 -19.38419,26.5235 -32.23311,17.3603 -14.55339,-8.2262 -11.90437,-32.4363 3.97593,-37.4833 m 68.10745,68.313 c -5.14484,-9.5906 4.20036,-22.3021 14.84883,-20.5267 5.30053,-0.087 9.00752,4.0867 12.40049,7.5906 0.69647,5.6833 1.86531,12.4639 -2.85224,16.8433 -6.40586,8.1079 -20.91707,5.7944 -24.39708,-3.9072 m -390.39432,-17.8568 c 9.95199,-6.6248 24.27321,3.256 22.03571,14.8914 -1.18995,10.2897 -14.15222,16.1706 -22.69007,10.3317 -9.16315,-5.3004 -8.82547,-20.392 0.65436,-25.2231 m 196.61259,21.5401 c 13.02836,-5.7493 29.62652,5.5931 28.39164,19.9435 0.96583,15.8568 -19.5636,26.8377 -32.30164,17.3155 -14.14979,-8.1762 -11.79113,-32.2304 3.91,-37.259 m -91.06397,21.244 c 11.09706,-5.8385 25.98817,4.2454 24.97777,16.6642 0.33743,10.1974 -9.61449,18.8882 -19.6772,17.3818 -8.33479,-0.1805 -13.76982,-7.6513 -16.44245,-14.7566 0.13713,-7.7437 3.32428,-16.3684 11.14188,-19.2894 m 184.46035,0.1805 c 11.41092,-7.0525 27.62911,3.0762 26.55015,16.3577 0.293,13.8807 -18.03608,22.7721 -28.66097,13.6537 -10.28701,-7.1473 -9.03123,-24.3284 2.11082,-30.0114 m 32.07752,79.3018 c -5.07628,-7.6805 0.89958,-16.9332 9.14193,-18.685 6.62766,1.348 13.63524,6.3321 12.24213,14.0151 -0.96569,10.398 -16.1733,13.5877 -21.38406,4.6699 m -254.6335,-6.6688 c 2.02098,-6.0868 6.91781,-12.1363 14.08362,-10.5536 10.44541,0.7418 13.54553,16.4847 4.40355,21.337 -8.22124,5.543 -17.75901,-2.0476 -18.48717,-10.7834 m 122.84595,6.9841 c 1.99991,-9.0049 13.65624,-13.3847 21.33925,-8.6012 5.07627,2.1791 6.55915,7.8596 7.86245,12.6879 -0.6966,2.5141 -1.3193,5.0314 -1.93134,7.5458 -3.14493,3.7281 -7.18692,7.4563 -12.42157,7.3216 -9.7277,1.1397 -18.503,-9.8572 -14.84879,-18.9541"
               id="path10172-6"
               style="fill:#ffb100;fill-opacity:1;stroke-width:0.263841" /></g></g></g></g></g><style
     type="text/css"
     id="style11610">.st0{fill-rule:evenodd;clip-rule:evenodd;}</style></svg>
