<?xml version="1.0" encoding="UTF-8" standalone="no"?>
<!-- Created with Inkscape (http://www.inkscape.org/) -->

<svg
   width="1800"
   height="300"
   viewBox="0 0 476.24998 79.375002"
   version="1.1"
   id="svg5"
   xml:space="preserve"
   inkscape:version="1.3.2 (091e20ef0f, 2023-11-25)"
   sodipodi:docname="banner_nmkr.svg"
   xmlns:inkscape="http://www.inkscape.org/namespaces/inkscape"
   xmlns:sodipodi="http://sodipodi.sourceforge.net/DTD/sodipodi-0.dtd"
   xmlns="http://www.w3.org/2000/svg"
   xmlns:svg="http://www.w3.org/2000/svg"><sodipodi:namedview
     id="namedview7"
     pagecolor="#ffffff"
     bordercolor="#ffffff"
     borderopacity="1"
     inkscape:showpageshadow="0"
     inkscape:pageopacity="0"
     inkscape:pagecheckerboard="1"
     inkscape:deskcolor="#505050"
     inkscape:document-units="mm"
     showgrid="false"
     inkscape:zoom="0.16205128"
     inkscape:cx="3270.5696"
     inkscape:cy="401.10759"
     inkscape:window-width="1920"
     inkscape:window-height="1010"
     inkscape:window-x="0"
     inkscape:window-y="0"
     inkscape:window-maximized="1"
     inkscape:current-layer="layer1" /><defs
     id="defs2"><linearGradient
       id="linearGradient5186"
       inkscape:swatch="gradient"><stop
         style="stop-color:#339d43;stop-opacity:1;"
         offset="0"
         id="stop5182" /><stop
         style="stop-color:#339d43;stop-opacity:0;"
         offset="1"
         id="stop5184" /></linearGradient><linearGradient
       id="linearGradient3237"><stop
         id="stop3239"
         offset="0"
         style="stop-color:#d5e6ff;stop-opacity:1;" /><stop
         id="stop3241"
         offset="1"
         style="stop-color:#ffffff;stop-opacity:0;" /></linearGradient><filter
       style="color-interpolation-filters:sRGB"
       inkscape:label="Drop Shadow"
       id="filter10502-6-4-1-67"
       x="0"
       y="0"
       width="1.0047057"
       height="1.0214813"><feFlood
         flood-opacity="0.54902"
         flood-color="rgb(0,0,0)"
         result="flood"
         id="feFlood10492-2-1-8-5" /><feComposite
         in="flood"
         in2="SourceGraphic"
         operator="in"
         result="composite1"
         id="feComposite10494-0-9-5-3" /><feGaussianBlur
         in="composite1"
         stdDeviation="0"
         result="blur"
         id="feGaussianBlur10496-4-5-9-56" /><feOffset
         dx="1"
         dy="1"
         result="offset"
         id="feOffset10498-5-7-7-2" /><feComposite
         in="SourceGraphic"
         in2="offset"
         operator="over"
         result="composite2"
         id="feComposite10500-0-3-5-91" /></filter><linearGradient
       id="linear-gradient"
       x1="120"
       y1="240"
       x2="120"
       gradientUnits="userSpaceOnUse"
       gradientTransform="matrix(0.26458333,0,0,0.26458333,-58.280982,53.29732)"><stop
         offset="0"
         stop-color="#1d93d2"
         id="stop1" /><stop
         offset="1"
         stop-color="#38b0e3"
         id="stop2" /></linearGradient></defs><g
     inkscape:label="Layer 1"
     inkscape:groupmode="layer"
     id="layer1"><g
       id="g4"
       inkscape:export-filename="jpg_store_banner.png"
       inkscape:export-xdpi="25.4"
       inkscape:export-ydpi="25.4"><rect
         style="fill:#f9f9f9;stroke-width:4.24931"
         id="rect2"
         height="300"
         x="0"
         y="-1.0925736e-06"
         width="1800" /><text
         xml:space="preserve"
         style="font-style:normal;font-variant:normal;font-weight:bold;font-stretch:normal;font-size:21.3333px;line-height:1.25;font-family:Arial;-inkscape-font-specification:'Arial Bold';fill:#000000;fill-opacity:1;stroke:none;filter:url(#filter10502-6-4-1-67)"
         x="89.375244"
         y="1015.2678"
         id="text6407-6-7-8-27"
         transform="matrix(5.1920177,0,0,5.5915757,430.87831,-5573.4559)"><tspan
           sodipodi:role="line"
           x="89.375244"
           y="1015.2678"
           style="font-style:normal;font-variant:normal;font-weight:bold;font-stretch:normal;font-size:21.3333px;font-family:Arial;-inkscape-font-specification:'Arial Bold';text-align:center;text-anchor:middle"
           id="tspan8304-3">@thoth_cardano_bot</tspan><tspan
           sodipodi:role="line"
           x="89.375244"
           y="1041.9344"
           style="font-style:normal;font-variant:normal;font-weight:bold;font-stretch:normal;font-size:21.3333px;font-family:Arial;-inkscape-font-specification:'Arial Bold';text-align:center;text-anchor:middle"
           id="tspan3">Utility NFTs</tspan></text><g
         id="g1"><g
           id="g5830"
           inkscape:export-filename="21024px.png"
           inkscape:export-xdpi="196.608"
           inkscape:export-ydpi="196.608"
           transform="matrix(2.2677168,0,0,2.2677168,-2.5681626e-5,-4.2982932e-5)"><ellipse
             style="fill:#ffffff;fill-opacity:1;stroke:#000036;stroke-width:1.27932;stroke-dasharray:none;stroke-opacity:1"
             id="path9741-3"
             cx="-66.145844"
             cy="66.145844"
             transform="rotate(-90)"
             rx="65.506165"
             ry="65.506172" /><g
             id="g5059"
             transform="matrix(1.0152582,0,0,1.0152582,-4.0318517,-3.5133193)"><g
               id="g4119"
               transform="matrix(0.09651537,0,0,0.09651537,7.9145514,-13.977935)"><path
                 style="fill:#000036;fill-opacity:1;stroke:#ffb100;stroke-width:4;stroke-linecap:butt;stroke-linejoin:miter;stroke-dasharray:none;stroke-opacity:1"
                 d="m 915.36095,459.82 c 58.83662,-39.90576 145.45955,-27.15962 267.60045,41.89473 0.058,-0.52495 -124.5372,-127.22728 -302.54604,-68.10393 C 746.92568,421.1587 787.36964,501.24123 733.69521,538.91607 458.9892,320.70745 141.47901,534.97912 33.67661,675.07353 22.819153,689.18332 18.514423,709.0901 16.897859,719.28662 c -1.838369,11.59556 -4.5395,4.90289 0.601337,46.14024 L 62.238831,726.56674 C 419.61348,433.3086 538.1008,449.93483 667.53242,517.76553 351.83617,349.48045 16.593264,866.54528 52.187786,932.19376 l 24.340649,-9.96347 C 115.82461,807.16538 250.97923,690.29874 293.1152,653.98208 c -27.35209,30.90428 -84.30976,91.05745 -104.20403,121.96173 6.08239,-0.14555 12.16478,-0.53004 18.24717,-5.33832 26.23155,-39.83971 91.86683,-83.42922 126.60787,-113.05753 -21.65625,24.94952 -63.94282,60.26598 -82.01521,87.00743 9.03356,0.75114 20.91983,0.36008 29.95339,-0.71318 40.19995,-36.96938 92.04846,-71.56161 130.51114,-99.84459 -23.77252,26.38442 -58.24268,54.5944 -82.0152,84.51131 20.22587,5.14545 41.50855,3.7471 54.91453,4.63565 32.54873,-21.93506 60.49482,-51.97424 86.29425,-75.59662 l -38.51149,68.46486 c 46.72168,-15.42511 76.13085,-45.2773 112.68176,-69.17804 -20.45256,22.81957 -39.83659,45.90628 -52.775,70.60439 48.88874,-7.97928 61.92907,-39.8575 90.57331,-61.33311 -15.6783,21.64457 -35.74956,38.89617 -46.35642,65.61217 l 20.68209,11.41081 c 23.56314,-27.80283 42.48602,-42.01845 64.18582,-54.91453 -30.10527,22.57221 -34.83701,47.58997 -40.65102,72.03074 125.32269,57.29297 166.42313,215.7359 203.25506,340.89795 0.66709,-22.8629 12.29825,-46.5825 10.512,-69.804 -3.30134,-42.91789 -30.77872,-158.40675 -61.27584,-281.11516 -22.42857,-90.24372 -15.48031,-128.35628 12.25236,-198.93926 -23.82469,59.84785 -7.04169,166.53288 41.28329,287.70542 6.22827,15.61707 24.00956,99.51051 25.75522,179.4246 50.77837,-163.9312 29.4592,-295.92046 -25.67432,-412.92867 51.25893,1.05281 64.21006,15.84429 66.65658,18.71562 59.59681,86.48595 13.72332,229.68626 -11.02888,362.83336 54.83571,-120.27298 70.31528,-197.18598 73.04414,-262.0946 C 918.08744,675.71146 885.2483,622.64124 884.08169,563.381 882.75606,496.04298 907.6458,471.12397 915.36095,459.82 Z"
                 id="path770"
                 sodipodi:nodetypes="ccccssccccccccccccccccccccccccsscsccccssc" /><path
                 style="fill:#000036;fill-opacity:1;stroke:#ffb100;stroke-width:4;stroke-linecap:butt;stroke-linejoin:miter;stroke-dasharray:none;stroke-opacity:1"
                 d="M 921.42295,728.86552 C 1035.9816,1256.4849 799.12994,1534.1563 497.79661,1459.1574 728.99345,1392.0547 964.52247,1333.4408 921.42295,728.86552 Z"
                 id="path1480"
                 sodipodi:nodetypes="ccc" /><path
                 style="fill:#000036;fill-opacity:1;stroke:#ffb100;stroke-width:4;stroke-linecap:butt;stroke-linejoin:miter;stroke-dasharray:none;stroke-opacity:1"
                 d="m 898.60133,1041.2364 c -39.59852,352.2789 -369.45853,431.7844 -577.67228,373.7041 46.93415,-15.3693 62.6064,-10.6417 91.82136,-14.6201 -33.4248,-6.7227 -71.63523,-12.805 -104.12364,-33.341 459.45402,24.917 589.97456,-325.743 589.97456,-325.743 z"
                 id="path1482"
                 sodipodi:nodetypes="ccccc" /><path
                 style="fill:#000036;fill-opacity:1;stroke:#ffb100;stroke-width:4;stroke-linecap:butt;stroke-linejoin:miter;stroke-dasharray:none;stroke-opacity:1"
                 d="M 902.88038,868.64795 C 891.41144,1214.6447 643.62017,1343.3348 348.02973,1331.4989 628.12499,1302.9182 851.31368,1209.4069 902.88038,868.64795 Z"
                 id="path1484"
                 sodipodi:nodetypes="ccc" /><ellipse
                 style="fill:none;stroke:#ffb100;stroke-width:5.07096;stroke-dasharray:none;stroke-opacity:1"
                 id="path1705"
                 cx="479.90091"
                 cy="719.21326"
                 rx="12.691538"
                 ry="5.5780897"
                 transform="matrix(0.94670062,-0.3221148,0.53480597,0.84497489,0,0)" /><g
                 id="g4048"
                 transform="matrix(0.90658148,0,0,0.90658148,60.321301,89.833979)"><circle
                   style="opacity:1;fill:#000036;fill-opacity:1;stroke-width:112.352"
                   id="path5315-3"
                   cx="401.41592"
                   cy="1022.7028"
                   r="274.83121" /><path
                   d="m 394.94255,780.35762 c 11.50081,-5.99714 25.53961,7.91512 19.42915,19.40527 -3.54857,9.36637 -17.00443,11.85698 -23.87738,4.71745 -7.28194,-6.85178 -4.90742,-20.3947 4.44823,-24.12272 m -123.70079,13.33449 c 6.98651,-2.87596 15.83024,3.52476 15.11791,11.13924 0.74149,8.26603 -9.36624,14.35013 -16.48724,10.4216 -9.43487,-3.65415 -8.35587,-18.97007 1.36933,-21.56084 m 253.35391,21.79301 c -10.91772,-1.31919 -12.64583,-18.4846 -2.13453,-21.94086 8.15268,-3.97596 15.63256,3.48011 16.82498,11.20794 -1.70958,6.59859 -7.23445,12.64045 -14.69045,10.73292 m -225.2076,30.85595 c 11.68011,-7.3874 28.34682,3.6146 26.55015,17.1811 -0.60684,13.6985 -18.80115,21.6349 -29.06722,12.374 -9.92557,-7.274 -8.42172,-23.9617 2.51707,-29.5551 m 178.30486,7.8386 c 5.21077,-13.4293 26.32589,-13.8356 32.25704,-0.7618 5.86248,10.1737 -1.34829,22.772 -11.7937,26.2308 -13.83572,2.583 -26.97747,-12.374 -20.46334,-25.4683 m -97.64673,24.7058 c -0.11282,-11.5429 10.40059,-20.144 21.37108,-20.9301 7.27656,1.4589 15.20758,4.559 18.32877,11.9016 5.81773,10.1288 0.65171,24.0753 -9.85966,28.7242 -4.80715,2.6937 -10.49022,1.6832 -15.72473,1.3693 -8.00219,-3.9286 -14.74065,-11.6326 -14.11546,-21.065 m -183.96165,16.8193 c 10.66971,-6.559 25.06483,5.4113 21.02544,17.0018 -2.2242,10.0258 -15.70099,14.1047 -23.40521,7.704 -8.22374,-5.9971 -6.92044,-20.4157 2.37977,-24.7058 m 395.03266,-0.021 c 9.05247,-7.0287 23.99093,1.0345 22.91179,12.4637 0.60683,10.4216 -12.30805,18.2815 -21.29428,12.915 -9.8967,-4.4484 -10.90713,-19.6745 -1.61751,-25.3787 m -159.33747,20.7509 c 14.9386,-5.3665 32.68164,1.0553 41.19585,14.3739 11.23154,16.2815 5.25558,41.0771 -12.1736,50.4196 -18.05968,11.0496 -44.43042,1.6833 -51.10025,-18.4845 -7.57216,-18.0545 3.45887,-40.6496 22.078,-46.309 m -87.64725,1.7757 c 16.55587,-7.8149 38.83709,-1.2585 46.834,15.6773 9.41109,16.4846 2.13453,39.4386 -14.69042,47.9501 -16.84616,9.5667 -40.61283,2.3138 -48.76547,-15.3845 -9.14198,-17.1152 -1.02356,-40.3621 16.62189,-48.2429 m -87.76062,30.004 c 1.25844,-10.667 11.32135,-17.6086 21.47387,-18.3262 10.93865,1.3192 19.67705,9.8148 20.86693,20.8855 -0.71771,10.9598 -9.18682,21.6717 -20.80115,21.6057 -12.77765,1.1002 -23.98021,-11.6116 -21.53965,-24.165 m 259.21631,-16.0071 c 13.11804,-7.6356 31.33342,3.48 30.75037,18.5505 0.8997,15.9675 -19.26032,27.2202 -32.32292,17.854 -13.56913,-7.7991 -12.51121,-29.7637 1.57255,-36.4045 m -207.12403,56.2768 c 15.34221,-4.2214 32.88487,3.0104 40.40947,17.11263 8.24242,14.1945 4.87319,33.9138 -7.92835,44.3249 -16.41853,15.2711 -46.69937,9.1394 -55.43773,-11.7012 -10.04171,-19.1046 2.1556,-44.70753 22.95661,-49.73633 m 166.24208,-0.077 c 14.91489,-4.2662 32.43645,1.4829 40.45446,15.07063 10.60112,15.5402 5.54053,38.7183 -10.24218,48.7364 -16.53209,11.6325 -42.14043,5.5247 -51.23755,-12.6644 -11.02846,-18.8142 0.067,-45.40403 21.02527,-51.14263 m -264.92046,17.73013 c 13.25267,-5.0129 27.94326,9.6117 22.57409,22.7508 -3.2796,11.9704 -20.14937,16.395 -28.86399,7.5696 -10.19737,-8.2872 -6.42186,-26.7269 6.2899,-30.3204 m 359.2165,19.0677 c -0.38274,-10.981 7.65149,-20.7062 18.91196,-21.313 9.07612,1.4379 17.90148,8.7595 17.18377,18.6403 0.83109,13.0494 -14.89364,21.9198 -26.01174,15.788 -5.21077,-2.6489 -7.88356,-7.9942 -10.08399,-13.1153 m -424.3794,-12.6222 c 7.97313,-3.48 17.83552,3.4299 16.01507,12.2844 -0.42749,10.0259 -15.22883,13.8807 -20.66656,5.5037 -4.80445,-5.8176 -1.92863,-14.7882 4.65149,-17.7881 z m 502.72637,-0.1999 c 5.61451,-3.9971 14.62203,-1.1239 16.84609,5.4351 3.77302,7.1633 -3.14497,16.978 -11.20794,15.7671 -11.31865,1.0312 -14.98061,-16.2182 -5.63815,-21.2022 m -295.57859,48.1269 c 20.98049,-5.4562 43.53336,12.0391 43.66532,33.6423 1.36932,21.8296 -20.8433,41.1875 -42.31974,36.1457 -16.60065,-2.6728 -29.62652,-18.6639 -29.08828,-35.4389 -0.0448,-16.0438 12.06278,-30.9563 27.7427,-34.3491 m 83.08816,-0.044 c 21.2944,-5.9523 44.52013,11.8568 44.18241,33.9585 1.12382,21.4263 -20.39473,40.1325 -41.42271,35.8819 -19.78794,-2.5593 -34.38869,-24.2993 -28.86399,-43.5016 2.78872,-12.7962 13.47946,-23.2019 26.10429,-26.3388 m -160.20029,13.2971 c 14.73537,-2.5144 28.55005,13.9255 22.57394,27.917 -4.35842,14.9094 -26.05659,18.9541 -35.64983,6.7752 -11.25276,-11.6958 -2.85207,-33.0775 13.07589,-34.6922 m 243.66822,0.6575 c 13.13921,-5.5038 29.26772,5.8625 28.25718,20.123 0.52758,15.6985 -19.38419,26.5235 -32.23311,17.3603 -14.55339,-8.2262 -11.90437,-32.4363 3.97593,-37.4833 m 68.10745,68.313 c -5.14484,-9.5906 4.20036,-22.3021 14.84883,-20.5267 5.30053,-0.087 9.00752,4.0867 12.40049,7.5906 0.69647,5.6833 1.86531,12.4639 -2.85224,16.8433 -6.40586,8.1079 -20.91707,5.7944 -24.39708,-3.9072 m -390.39432,-17.8568 c 9.95199,-6.6248 24.27321,3.256 22.03571,14.8914 -1.18995,10.2897 -14.15222,16.1706 -22.69007,10.3317 -9.16315,-5.3004 -8.82547,-20.392 0.65436,-25.2231 m 196.61259,21.5401 c 13.02836,-5.7493 29.62652,5.5931 28.39164,19.9435 0.96583,15.8568 -19.5636,26.8377 -32.30164,17.3155 -14.14979,-8.1762 -11.79113,-32.2304 3.91,-37.259 m -91.06397,21.244 c 11.09706,-5.8385 25.98817,4.2454 24.97777,16.6642 0.33743,10.1974 -9.61449,18.8882 -19.6772,17.3818 -8.33479,-0.1805 -13.76982,-7.6513 -16.44245,-14.7566 0.13713,-7.7437 3.32428,-16.3684 11.14188,-19.2894 m 184.46035,0.1805 c 11.41092,-7.0525 27.62911,3.0762 26.55015,16.3577 0.293,13.8807 -18.03608,22.7721 -28.66097,13.6537 -10.28701,-7.1473 -9.03123,-24.3284 2.11082,-30.0114 m 32.07752,79.3018 c -5.07628,-7.6805 0.89958,-16.9332 9.14193,-18.685 6.62766,1.348 13.63524,6.3321 12.24213,14.0151 -0.96569,10.398 -16.1733,13.5877 -21.38406,4.6699 m -254.6335,-6.6688 c 2.02098,-6.0868 6.91781,-12.1363 14.08362,-10.5536 10.44541,0.7418 13.54553,16.4847 4.40355,21.337 -8.22124,5.543 -17.75901,-2.0476 -18.48717,-10.7834 m 122.84595,6.9841 c 1.99991,-9.0049 13.65624,-13.3847 21.33925,-8.6012 5.07627,2.1791 6.55915,7.8596 7.86245,12.6879 -0.6966,2.5141 -1.3193,5.0314 -1.93134,7.5458 -3.14493,3.7281 -7.18692,7.4563 -12.42157,7.3216 -9.7277,1.1397 -18.503,-9.8572 -14.84879,-18.9541"
                   id="path10172-6"
                   style="fill:#ffb100;fill-opacity:1;stroke-width:0.263841" /></g></g></g></g><g
           id="g3"
           transform="matrix(4.7244094,0,0,4.7244094,1775.3432,-251.79835)"><circle
             cx="-26.530981"
             cy="85.047318"
             r="31.75"
             fill="url(#linear-gradient)"
             id="circle2"
             style="fill:url(#linear-gradient);stroke-width:0.264583" /><g
             id="g2"
             transform="matrix(1.3509455,0,0,1.3509455,12.226223,-30.315839)"><path
               d="m -39.434978,87.368245 3.766873,10.42617 c 0,0 0.470959,0.975519 0.975254,0.975519 0.504296,0 8.004969,-7.803092 8.004969,-7.803092 l 8.340989,-16.110479 -20.953676,9.82054 z"
               fill="#c8daea"
               id="path2"
               style="stroke-width:0.264583" /><path
               d="m -34.440438,90.042124 -0.723106,7.685087 c 0,0 -0.302684,2.354789 2.051579,0 2.354262,-2.354792 4.607718,-4.170627 4.607718,-4.170627"
               fill="#a9c6d8"
               id="path3"
               style="stroke-width:0.264583" /><path
               d="m -39.36698,87.740249 -7.748587,-2.524654 c 0,0 -0.926042,-0.375709 -0.627856,-1.227667 0.06138,-0.175683 0.185208,-0.325173 0.555625,-0.582083 1.716881,-1.196711 31.778045,-12.0015 31.778045,-12.0015 0,0 0.848783,-0.286015 1.349375,-0.09578 a 0.73183749,0.73183749 0 0 1 0.49874,0.543718 2.4757062,2.4757062 0 0 1 0.0672,0.683948 c -0.0024,0.198967 -0.02646,0.383382 -0.04472,0.672571 -0.183092,2.954073 -5.662083,25.001273 -5.662083,25.001273 0,0 -0.327819,1.290108 -1.502304,1.334293 a 2.1510625,2.1510625 0 0 1 -1.567656,-0.606425 c -2.304786,-1.982522 -10.270861,-7.336102 -12.031134,-8.513497 a 0.33602083,0.33602083 0 0 1 -0.144462,-0.238125 c -0.02461,-0.12409 0.110331,-0.277813 0.110331,-0.277813 0,0 13.871046,-12.329583 14.240139,-13.623925 0.02858,-0.100277 -0.07937,-0.149754 -0.224366,-0.105833 -0.921279,0.338931 -16.892058,10.424583 -18.654712,11.537685 a 0.84931249,0.84931249 0 0 1 -0.391584,0.02381 z"
               fill="#ffffff"
               id="path4"
               style="stroke-width:0.264583" /></g></g></g></g></g><style
     type="text/css"
     id="style11610">.st0{fill-rule:evenodd;clip-rule:evenodd;}</style></svg>
