<?xml version="1.0" encoding="UTF-8" standalone="no"?>
<!-- Created with Inkscape (http://www.inkscape.org/) -->

<svg
   width="1000"
   height="1000"
   viewBox="0 0 264.58332 264.58334"
   version="1.1"
   id="svg5"
   xml:space="preserve"
   inkscape:version="1.3.2 (091e20ef0f, 2023-11-25)"
   sodipodi:docname="jpg_store_img.svg"
   inkscape:export-filename="jpg_store_img.png"
   inkscape:export-xdpi="107.904"
   inkscape:export-ydpi="107.904"
   xmlns:inkscape="http://www.inkscape.org/namespaces/inkscape"
   xmlns:sodipodi="http://sodipodi.sourceforge.net/DTD/sodipodi-0.dtd"
   xmlns:xlink="http://www.w3.org/1999/xlink"
   xmlns="http://www.w3.org/2000/svg"
   xmlns:svg="http://www.w3.org/2000/svg"
   xmlns:sketch="http://www.bohemiancoding.com/sketch/ns"><sodipodi:namedview
     id="namedview7"
     pagecolor="#ffffff"
     bordercolor="#ffffff"
     borderopacity="1"
     inkscape:showpageshadow="0"
     inkscape:pageopacity="0"
     inkscape:pagecheckerboard="1"
     inkscape:deskcolor="#505050"
     inkscape:document-units="mm"
     showgrid="false"
     inkscape:zoom="0.40236606"
     inkscape:cx="-273.3829"
     inkscape:cy="556.70699"
     inkscape:window-width="1920"
     inkscape:window-height="1010"
     inkscape:window-x="0"
     inkscape:window-y="0"
     inkscape:window-maximized="1"
     inkscape:current-layer="g2" /><defs
     id="defs2"><inkscape:path-effect
       effect="bend_path"
       id="path-effect2"
       is_visible="true"
       lpeversion="1"
       bendpath="m 98.601395,32.638694 c 22.016175,-7.976836 44.521245,-8.927986 67.380525,0"
       prop_scale="1"
       scale_y_rel="false"
       vertical="false"
       hide_knot="false"
       bendpath-nodetypes="cc" /><inkscape:path-effect
       effect="bend_path"
       id="path-effect1"
       is_visible="true"
       lpeversion="1"
       bendpath="m 59.350351,55.355073 c 37.276582,27.968341 82.077719,27.006336 116.492109,0"
       prop_scale="1"
       scale_y_rel="false"
       vertical="false"
       hide_knot="false"
       bendpath-nodetypes="cc" /><linearGradient
       id="linearGradient9"
       inkscape:collect="always"><stop
         style="stop-color:#ffffff;stop-opacity:1;"
         offset="0.49676505"
         id="stop9" /><stop
         style="stop-color:#000036;stop-opacity:1;"
         offset="1"
         id="stop10" /></linearGradient><linearGradient
       id="linearGradient5186"
       inkscape:swatch="gradient"><stop
         style="stop-color:#339d43;stop-opacity:1;"
         offset="0"
         id="stop5182" /><stop
         style="stop-color:#339d43;stop-opacity:0;"
         offset="1"
         id="stop5184" /></linearGradient><linearGradient
       id="linearGradient3237"><stop
         id="stop3239"
         offset="0"
         style="stop-color:#d5e6ff;stop-opacity:1;" /><stop
         id="stop3241"
         offset="1"
         style="stop-color:#ffffff;stop-opacity:0;" /></linearGradient><filter
       style="color-interpolation-filters:sRGB"
       inkscape:label="Drop Shadow"
       id="filter10502-6-4-1-67"
       x="0"
       y="0"
       width="1.0047057"
       height="1.0214813"><feFlood
         flood-opacity="0.54902"
         flood-color="rgb(0,0,0)"
         result="flood"
         id="feFlood10492-2-1-8-5" /><feComposite
         in="flood"
         in2="SourceGraphic"
         operator="in"
         result="composite1"
         id="feComposite10494-0-9-5-3" /><feGaussianBlur
         in="composite1"
         stdDeviation="0"
         result="blur"
         id="feGaussianBlur10496-4-5-9-56" /><feOffset
         dx="1"
         dy="1"
         result="offset"
         id="feOffset10498-5-7-7-2" /><feComposite
         in="SourceGraphic"
         in2="offset"
         operator="over"
         result="composite2"
         id="feComposite10500-0-3-5-91" /></filter><linearGradient
       id="linear-gradient"
       x1="120"
       y1="240"
       x2="120"
       gradientUnits="userSpaceOnUse"
       gradientTransform="matrix(0.26458333,0,0,0.26458333,-58.280982,53.29732)"><stop
         offset="0"
         stop-color="#1d93d2"
         id="stop1" /><stop
         offset="1"
         stop-color="#38b0e3"
         id="stop2" /></linearGradient><linearGradient
       id="linear-gradient-5"
       x1="120"
       y1="240"
       x2="120"
       gradientUnits="userSpaceOnUse"
       gradientTransform="matrix(0.26458333,0,0,0.26458333,-58.280982,53.29732)"><stop
         offset="0"
         stop-color="#1d93d2"
         id="stop1-6" /><stop
         offset="1"
         stop-color="#38b0e3"
         id="stop2-2" /></linearGradient><linearGradient
       id="linear-gradient-5-6"
       x1="120"
       y1="240"
       x2="120"
       gradientUnits="userSpaceOnUse"
       gradientTransform="matrix(0.26458333,0,0,0.26458333,-58.280982,53.29732)"><stop
         offset="0"
         stop-color="#1d93d2"
         id="stop1-6-0" /><stop
         offset="1"
         stop-color="#38b0e3"
         id="stop2-2-6" /></linearGradient><radialGradient
       inkscape:collect="always"
       xlink:href="#linearGradient9"
       id="radialGradient10"
       cx="-132.92476"
       cy="130.75989"
       fx="-132.92476"
       fy="130.75989"
       r="125.30713"
       gradientUnits="userSpaceOnUse"
       gradientTransform="matrix(0.96954428,0,0,0.96954428,-3.4152233,5.5141618)" /></defs><g
     inkscape:label="Layer 1"
     inkscape:groupmode="layer"
     id="layer1"><g
       id="g2"
       inkscape:export-filename="plus_one.png"
       inkscape:export-xdpi="96.003"
       inkscape:export-ydpi="96.003"><circle
         style="fill:url(#radialGradient10);fill-opacity:1;stroke:none;stroke-width:2.34981;stroke-dasharray:none;stroke-opacity:1"
         id="path9741-3-7"
         cx="-132.29166"
         cy="132.29166"
         transform="rotate(-90)"
         r="120.31591" /><path
         style="fill:#000036;fill-opacity:1;stroke:#ffb100;stroke-width:0.608024;stroke-linecap:butt;stroke-linejoin:miter;stroke-dasharray:none;stroke-opacity:1"
         d="m 175.03232,72.112391 c 8.94351,-6.065914 22.11072,-4.128424 40.67686,6.368249 0.009,-0.07979 -18.9304,-19.339306 -45.9888,-10.352204 -20.29123,-1.892793 -14.14351,10.280229 -22.30234,16.00703 -41.75696,-33.169013 -90.0204,-0.59844 -106.407008,20.696744 -1.650399,2.14478 -2.304743,5.17072 -2.550471,6.72066 -0.279443,1.76259 -0.690031,0.74527 0.09141,7.01359 l 6.800692,-5.90697 C 99.67574,68.0825 117.68652,70.609786 137.3609,80.920458 89.373184,55.340121 38.414261,133.93706 43.824841,143.91602 l 3.699924,-1.5145 c 5.973253,-17.49056 26.517562,-35.25498 32.922481,-40.77533 -4.157681,4.69763 -12.815587,13.84127 -15.839634,18.53891 0.924559,-0.0221 1.849119,-0.0806 2.773678,-0.81146 3.987353,-6.05587 13.964307,-12.68174 19.245153,-17.18542 -3.29188,3.79248 -9.719691,9.16079 -12.466802,13.22565 1.373155,0.11418 3.179939,0.0547 4.553094,-0.10841 6.110632,-5.61956 13.991916,-10.87779 19.838472,-15.17697 -3.613564,4.01059 -8.853235,8.29867 -12.4668,12.84622 3.074453,0.78214 6.309548,0.56958 8.347337,0.70465 4.947601,-3.33426 9.195576,-7.9004 13.117246,-11.49114 l -5.85398,10.40707 c 7.10197,-2.34471 11.57234,-6.88242 17.1283,-10.51548 -3.10891,3.46871 -6.0554,6.97803 -8.02212,10.73229 7.43138,-1.2129 9.41359,-6.05858 13.76769,-9.323 -2.3832,3.29011 -5.43415,5.91245 -7.04645,9.97345 l 3.1438,1.73451 c 3.58173,-4.2262 6.45812,-6.38706 9.75662,-8.34734 -4.57618,3.43111 -5.29543,7.23396 -6.17919,10.9491 19.04979,8.70888 25.29731,32.79315 30.89598,51.81853 0.1014,-3.4753 1.86941,-7.08082 1.59789,-10.61063 -0.50183,-6.52377 -4.67855,-24.07877 -9.3143,-42.73118 -3.40927,-13.71759 -2.3531,-19.510922 1.86243,-30.239956 -3.62149,9.09723 -1.07037,25.313996 6.27531,43.732946 0.94673,2.37388 3.6496,15.12619 3.91495,27.27361 7.71861,-24.91853 4.47797,-44.98168 -3.90265,-62.767627 7.79166,0.160033 9.76031,2.408426 10.1322,2.844886 9.05907,13.146381 2.08602,34.913681 -1.67646,55.152841 8.33536,-18.28222 10.68834,-29.97345 11.10315,-39.83995 0.3146,-7.48311 -4.67715,-15.550098 -4.85448,-24.558009 -0.2015,-10.235781 3.58189,-14.023619 4.75464,-15.74189 z"
         id="path770"
         sodipodi:nodetypes="ccccssccccccccccccccccccccccccsscsccccssc" /><path
         style="fill:#000036;fill-opacity:1;stroke:#ffb100;stroke-width:0.608024;stroke-linecap:butt;stroke-linejoin:miter;stroke-dasharray:none;stroke-opacity:1"
         d="m 175.95378,113.00892 c 17.41359,80.20129 -18.58927,122.409 -64.39374,111.00872 35.1433,-10.20001 70.94512,-19.10967 64.39374,-111.00872 z"
         id="path1480"
         sodipodi:nodetypes="ccc" /><path
         style="fill:#000036;fill-opacity:1;stroke:#ffb100;stroke-width:0.608024;stroke-linecap:butt;stroke-linejoin:miter;stroke-dasharray:none;stroke-opacity:1"
         d="m 172.48475,160.49116 c -6.01921,53.54849 -56.1599,65.6338 -87.809632,56.80525 7.134271,-2.33623 9.516546,-1.6176 13.957394,-2.22234 -5.080769,-1.02189 -10.888982,-1.94644 -15.827414,-5.06803 69.839752,3.78753 89.679652,-49.51488 89.679652,-49.51488 z"
         id="path1482"
         sodipodi:nodetypes="ccccc" /><path
         style="fill:#000036;fill-opacity:1;stroke:#ffb100;stroke-width:0.608024;stroke-linecap:butt;stroke-linejoin:miter;stroke-dasharray:none;stroke-opacity:1"
         d="m 173.13519,134.25668 c -1.74334,52.59357 -39.4091,72.15524 -84.340607,70.35611 42.576147,-4.34444 76.502167,-18.55871 84.340607,-70.35611 z"
         id="path1484"
         sodipodi:nodetypes="ccc" /><ellipse
         style="fill:none;stroke:#ffb100;stroke-width:0.770816;stroke-dasharray:none;stroke-opacity:1"
         id="path1705"
         cx="102.92307"
         cy="123.3754"
         rx="1.9291896"
         ry="0.84790295"
         transform="matrix(0.94670062,-0.32211478,0.53480596,0.8449749,0,0)" /><g
         id="g4048"
         transform="matrix(0.1378058,0,0,0.1378058,45.061184,15.872307)"><circle
           style="opacity:1;fill:#000036;fill-opacity:1;stroke-width:112.352"
           id="path5315-3"
           cx="401.41592"
           cy="1022.7028"
           r="274.83121" /><path
           d="m 394.94255,780.35762 c 11.50081,-5.99714 25.53961,7.91512 19.42915,19.40527 -3.54857,9.36637 -17.00443,11.85698 -23.87738,4.71745 -7.28194,-6.85178 -4.90742,-20.3947 4.44823,-24.12272 m -123.70079,13.33449 c 6.98651,-2.87596 15.83024,3.52476 15.11791,11.13924 0.74149,8.26603 -9.36624,14.35013 -16.48724,10.4216 -9.43487,-3.65415 -8.35587,-18.97007 1.36933,-21.56084 m 253.35391,21.79301 c -10.91772,-1.31919 -12.64583,-18.4846 -2.13453,-21.94086 8.15268,-3.97596 15.63256,3.48011 16.82498,11.20794 -1.70958,6.59859 -7.23445,12.64045 -14.69045,10.73292 m -225.2076,30.85595 c 11.68011,-7.3874 28.34682,3.6146 26.55015,17.1811 -0.60684,13.6985 -18.80115,21.6349 -29.06722,12.374 -9.92557,-7.274 -8.42172,-23.9617 2.51707,-29.5551 m 178.30486,7.8386 c 5.21077,-13.4293 26.32589,-13.8356 32.25704,-0.7618 5.86248,10.1737 -1.34829,22.772 -11.7937,26.2308 -13.83572,2.583 -26.97747,-12.374 -20.46334,-25.4683 m -97.64673,24.7058 c -0.11282,-11.5429 10.40059,-20.144 21.37108,-20.9301 7.27656,1.4589 15.20758,4.559 18.32877,11.9016 5.81773,10.1288 0.65171,24.0753 -9.85966,28.7242 -4.80715,2.6937 -10.49022,1.6832 -15.72473,1.3693 -8.00219,-3.9286 -14.74065,-11.6326 -14.11546,-21.065 m -183.96165,16.8193 c 10.66971,-6.559 25.06483,5.4113 21.02544,17.0018 -2.2242,10.0258 -15.70099,14.1047 -23.40521,7.704 -8.22374,-5.9971 -6.92044,-20.4157 2.37977,-24.7058 m 395.03266,-0.021 c 9.05247,-7.0287 23.99093,1.0345 22.91179,12.4637 0.60683,10.4216 -12.30805,18.2815 -21.29428,12.915 -9.8967,-4.4484 -10.90713,-19.6745 -1.61751,-25.3787 m -159.33747,20.7509 c 14.9386,-5.3665 32.68164,1.0553 41.19585,14.3739 11.23154,16.2815 5.25558,41.0771 -12.1736,50.4196 -18.05968,11.0496 -44.43042,1.6833 -51.10025,-18.4845 -7.57216,-18.0545 3.45887,-40.6496 22.078,-46.309 m -87.64725,1.7757 c 16.55587,-7.8149 38.83709,-1.2585 46.834,15.6773 9.41109,16.4846 2.13453,39.4386 -14.69042,47.9501 -16.84616,9.5667 -40.61283,2.3138 -48.76547,-15.3845 -9.14198,-17.1152 -1.02356,-40.3621 16.62189,-48.2429 m -87.76062,30.004 c 1.25844,-10.667 11.32135,-17.6086 21.47387,-18.3262 10.93865,1.3192 19.67705,9.8148 20.86693,20.8855 -0.71771,10.9598 -9.18682,21.6717 -20.80115,21.6057 -12.77765,1.1002 -23.98021,-11.6116 -21.53965,-24.165 m 259.21631,-16.0071 c 13.11804,-7.6356 31.33342,3.48 30.75037,18.5505 0.8997,15.9675 -19.26032,27.2202 -32.32292,17.854 -13.56913,-7.7991 -12.51121,-29.7637 1.57255,-36.4045 m -207.12403,56.2768 c 15.34221,-4.2214 32.88487,3.0104 40.40947,17.11263 8.24242,14.1945 4.87319,33.9138 -7.92835,44.3249 -16.41853,15.2711 -46.69937,9.1394 -55.43773,-11.7012 -10.04171,-19.1046 2.1556,-44.70753 22.95661,-49.73633 m 166.24208,-0.077 c 14.91489,-4.2662 32.43645,1.4829 40.45446,15.07063 10.60112,15.5402 5.54053,38.7183 -10.24218,48.7364 -16.53209,11.6325 -42.14043,5.5247 -51.23755,-12.6644 -11.02846,-18.8142 0.067,-45.40403 21.02527,-51.14263 m -264.92046,17.73013 c 13.25267,-5.0129 27.94326,9.6117 22.57409,22.7508 -3.2796,11.9704 -20.14937,16.395 -28.86399,7.5696 -10.19737,-8.2872 -6.42186,-26.7269 6.2899,-30.3204 m 359.2165,19.0677 c -0.38274,-10.981 7.65149,-20.7062 18.91196,-21.313 9.07612,1.4379 17.90148,8.7595 17.18377,18.6403 0.83109,13.0494 -14.89364,21.9198 -26.01174,15.788 -5.21077,-2.6489 -7.88356,-7.9942 -10.08399,-13.1153 m -424.3794,-12.6222 c 7.97313,-3.48 17.83552,3.4299 16.01507,12.2844 -0.42749,10.0259 -15.22883,13.8807 -20.66656,5.5037 -4.80445,-5.8176 -1.92863,-14.7882 4.65149,-17.7881 z m 502.72637,-0.1999 c 5.61451,-3.9971 14.62203,-1.1239 16.84609,5.4351 3.77302,7.1633 -3.14497,16.978 -11.20794,15.7671 -11.31865,1.0312 -14.98061,-16.2182 -5.63815,-21.2022 m -295.57859,48.1269 c 20.98049,-5.4562 43.53336,12.0391 43.66532,33.6423 1.36932,21.8296 -20.8433,41.1875 -42.31974,36.1457 -16.60065,-2.6728 -29.62652,-18.6639 -29.08828,-35.4389 -0.0448,-16.0438 12.06278,-30.9563 27.7427,-34.3491 m 83.08816,-0.044 c 21.2944,-5.9523 44.52013,11.8568 44.18241,33.9585 1.12382,21.4263 -20.39473,40.1325 -41.42271,35.8819 -19.78794,-2.5593 -34.38869,-24.2993 -28.86399,-43.5016 2.78872,-12.7962 13.47946,-23.2019 26.10429,-26.3388 m -160.20029,13.2971 c 14.73537,-2.5144 28.55005,13.9255 22.57394,27.917 -4.35842,14.9094 -26.05659,18.9541 -35.64983,6.7752 -11.25276,-11.6958 -2.85207,-33.0775 13.07589,-34.6922 m 243.66822,0.6575 c 13.13921,-5.5038 29.26772,5.8625 28.25718,20.123 0.52758,15.6985 -19.38419,26.5235 -32.23311,17.3603 -14.55339,-8.2262 -11.90437,-32.4363 3.97593,-37.4833 m 68.10745,68.313 c -5.14484,-9.5906 4.20036,-22.3021 14.84883,-20.5267 5.30053,-0.087 9.00752,4.0867 12.40049,7.5906 0.69647,5.6833 1.86531,12.4639 -2.85224,16.8433 -6.40586,8.1079 -20.91707,5.7944 -24.39708,-3.9072 m -390.39432,-17.8568 c 9.95199,-6.6248 24.27321,3.256 22.03571,14.8914 -1.18995,10.2897 -14.15222,16.1706 -22.69007,10.3317 -9.16315,-5.3004 -8.82547,-20.392 0.65436,-25.2231 m 196.61259,21.5401 c 13.02836,-5.7493 29.62652,5.5931 28.39164,19.9435 0.96583,15.8568 -19.5636,26.8377 -32.30164,17.3155 -14.14979,-8.1762 -11.79113,-32.2304 3.91,-37.259 m -91.06397,21.244 c 11.09706,-5.8385 25.98817,4.2454 24.97777,16.6642 0.33743,10.1974 -9.61449,18.8882 -19.6772,17.3818 -8.33479,-0.1805 -13.76982,-7.6513 -16.44245,-14.7566 0.13713,-7.7437 3.32428,-16.3684 11.14188,-19.2894 m 184.46035,0.1805 c 11.41092,-7.0525 27.62911,3.0762 26.55015,16.3577 0.293,13.8807 -18.03608,22.7721 -28.66097,13.6537 -10.28701,-7.1473 -9.03123,-24.3284 2.11082,-30.0114 m 32.07752,79.3018 c -5.07628,-7.6805 0.89958,-16.9332 9.14193,-18.685 6.62766,1.348 13.63524,6.3321 12.24213,14.0151 -0.96569,10.398 -16.1733,13.5877 -21.38406,4.6699 m -254.6335,-6.6688 c 2.02098,-6.0868 6.91781,-12.1363 14.08362,-10.5536 10.44541,0.7418 13.54553,16.4847 4.40355,21.337 -8.22124,5.543 -17.75901,-2.0476 -18.48717,-10.7834 m 122.84595,6.9841 c 1.99991,-9.0049 13.65624,-13.3847 21.33925,-8.6012 5.07627,2.1791 6.55915,7.8596 7.86245,12.6879 -0.6966,2.5141 -1.3193,5.0314 -1.93134,7.5458 -3.14493,3.7281 -7.18692,7.4563 -12.42157,7.3216 -9.7277,1.1397 -18.503,-9.8572 -14.84879,-18.9541"
           id="path10172-6"
           style="fill:#ffb100;fill-opacity:1;stroke-width:0.263841" /></g><path
         d="m 216.93262,151.04918 c -0.25913,0.75231 -1.01772,1.12221 -1.77004,0.86307 l -23.98023,-8.25989 c -2.63313,-0.90698 -11.65053,-11.37679 -9.80419,-16.73708 1.81393,-5.26625 15.39856,-8.05608 18.0317,-7.14911 l 23.98023,8.25988 c 0.75232,0.25914 1.12222,1.01774 0.86308,1.77006 z"
         id="Shape"
         style="fill:#ffb100;fill-opacity:1;fill-rule:evenodd;stroke:#000036;stroke-width:1.40662;stroke-opacity:1" /><circle
         id="Oval"
         cx="111.97757"
         cy="198.2121"
         r="2.8132224"
         style="fill:none;fill-opacity:1;fill-rule:evenodd;stroke:#000036;stroke-width:1.40662;stroke-opacity:1"
         transform="rotate(-25.993939)" /><path
         d="m 181.22508,129.65028 c -1.06841,-0.10501 -2.35414,-0.49528 -2.82434,-0.65723 -6.48877,-2.23503 -3.07354,-4.0568 -3.07354,-4.0568 0,0 -1.66293,-3.57093 4.91986,-1.30349 6.20666,2.13785 6.88321,3.68586 6.36496,5.1905"
         id="path1"
         style="fill:none;fill-opacity:1;fill-rule:evenodd;stroke:#000036;stroke-width:1.40662;stroke-opacity:1" /><path
         d="m 207.66812,143.28197 5.14087,-14.00885 -5.1837,2.52758"
         id="path2-4"
         sketch:type="MSShapeGroup"
         style="fill:none;fill-rule:evenodd;stroke:#000036;stroke-width:1.40662;stroke-opacity:1" /><path
         d="m 198.22076,131.76987 7.42916,2.55895"
         id="path3-7"
         sketch:type="MSShapeGroup"
         style="fill:none;fill-rule:evenodd;stroke:#000036;stroke-width:1.40662;stroke-opacity:1" /><path
         d="m 203.18242,129.4288 -2.52655,7.33512"
         id="path4-6"
         sketch:type="MSShapeGroup"
         style="fill:none;fill-rule:evenodd;stroke:#000036;stroke-width:1.40662;stroke-opacity:1" /><path
         style="font-weight:bold;font-size:10.8973px;line-height:1.25;font-family:Cantarell;-inkscape-font-specification:'Cantarell Bold';fill:#f9f9f9;stroke-width:0.291892"
         d="m 59.174045,59.909854 c 0.42267,0.302891 0.847545,0.602908 1.274578,0.900008 l 3.615604,-5.206232 c 0.706135,0.489759 1.418331,0.971186 2.136338,1.444055 L 66.87943,56.017862 C 65.060602,54.820571 63.279234,53.56785 61.539539,52.263527 l -0.739965,0.984212 c 0.68045,0.510636 1.367239,1.013439 2.060122,1.508187 -1.22855,1.717976 -2.457101,3.435952 -3.685651,5.153928 z m 4.455531,3.033196 c 0.444171,0.286949 0.890449,0.570783 1.338785,0.851456 l 1.719806,-2.749439 c 1.068599,0.668503 2.149026,1.318599 3.240557,1.94963 l -1.623455,2.808247 c 0.461668,0.266932 0.925304,0.530544 1.390858,0.79079 L 73.3949,59.977805 C 72.961154,59.73528 72.529103,59.489634 72.098798,59.240914 l -1.541463,2.666416 c -1.078877,-0.623683 -2.146868,-1.266189 -3.20325,-1.92686 l 1.632946,-2.610579 c -0.418292,-0.261412 -0.834746,-0.525744 -1.249313,-0.792949 z m 10.985174,6.34844 c 2.309347,1.139738 4.483995,0.361458 5.450588,-1.804281 0.935222,-2.09545 0.126091,-4.112696 -1.905509,-5.11476 -2.072009,-1.021994 -4.208108,-0.41066 -5.337861,1.677691 -1.093539,2.02141 -0.426234,4.146195 1.792782,5.24135 z m 0.654907,-1.05263 c -1.378096,-0.678434 -1.757476,-2.093291 -0.995559,-3.553042 0.718323,-1.376232 2.010939,-1.863999 3.237424,-1.25758 1.30747,0.646462 1.752535,2.037353 1.066656,3.513547 -0.661254,1.423194 -1.974448,1.953836 -3.308521,1.297075 z m 6.32661,4.088972 c 0.482514,0.196929 0.966464,0.390285 1.451803,0.580027 l 2.310789,-5.897144 c 0.797906,0.313178 1.599521,0.615887 2.404594,0.907899 l 0.419099,-1.157608 c -2.036821,-0.739477 -4.051629,-1.548421 -6.040211,-2.423003 l -0.495547,1.128888 c 0.778689,0.342253 1.561405,0.674572 2.347905,0.996736 -0.799477,1.954735 -1.598955,3.90947 -2.398432,5.864205 z m 5.04799,1.910521 c 0.499561,0.174435 1.000437,0.345034 1.502579,0.511753 l 1.021596,-3.068282 c 1.193156,0.3971 2.39337,0.771459 3.599917,1.122418 l -0.902827,3.102418 c 0.511969,0.148541 1.025102,0.293031 1.539349,0.433425 l 1.993367,-7.279646 c -0.475267,-0.130565 -0.949643,-0.26498 -1.42308,-0.4032 l -0.85723,2.945731 C 91.92693,71.256175 90.742046,70.886222 89.563999,70.493769 l 0.97,-2.91332 c -0.464982,-0.15529 -0.928918,-0.314218 -1.391759,-0.476741 z m 11.167307,3.197603 c 1.028421,0.230844 2.060639,0.44517 3.096266,0.642624 2.03128,0.387288 3.42467,-0.328588 3.64173,-1.728915 0.20015,-1.291207 -0.69992,-2.253377 -2.32536,-2.555015 -0.83967,-0.15582 -1.67729,-0.323444 -2.512635,-0.502656 L 99.48148,74.36498 c 0.75688,0.162256 1.51566,0.315139 2.27618,0.458494 0.8534,0.160864 1.32213,0.723408 1.19638,1.452031 -0.11783,0.682754 -0.63395,0.919989 -1.63265,0.731686 -0.58903,-0.111058 -1.17697,-0.227659 -1.763768,-0.349737 l 1.074978,-5.158382 c 0.34607,0.07225 0.69251,0.14245 1.0393,0.210588 0.9033,0.177479 1.34834,0.616909 1.2329,1.25975 -0.0938,0.522217 -0.52348,0.825078 -1.42399,0.927531 0.47568,0.14372 0.95288,0.283666 1.43155,0.419783 0.80164,-0.100898 1.40292,-0.687307 1.52654,-1.448422 0.18544,-1.141794 -0.69029,-1.915152 -2.43697,-2.256269 -0.84695,-0.165404 -1.69186,-0.343325 -2.534468,-0.533514 z m 11.404516,1.949723 c 2.57276,0.2579 4.32368,-1.24331 4.44829,-3.60348 0.12067,-2.285286 -1.34795,-3.864731 -3.56918,-4.081922 -2.26584,-0.221553 -4.04387,1.080663 -4.38079,3.418073 -0.32582,2.260431 1.03081,4.019644 3.50168,4.267329 z m 0.24205,-1.209524 c -1.53015,-0.151101 -2.37523,-1.341497 -2.17007,-2.96554 0.19351,-1.531889 1.22772,-2.433544 2.57367,-2.299853 1.43458,0.142495 2.33981,1.275963 2.22495,2.893568 -0.11068,1.558821 -1.14705,2.518123 -2.62855,2.371825 z m 7.38791,1.558453 c 0.52397,0.0087 1.0483,0.01289 1.57293,0.01246 l -0.0181,-6.330364 c 0.0845,-3.68e-4 0.16909,-8.69e-4 0.25365,-0.0015 0.76756,-0.0037 1.5348,-0.01835 2.30149,-0.04389 l -0.0421,-1.229529 c -0.7552,0.02481 -1.51087,0.03887 -2.26679,0.04204 -1.39492,0.01153 -2.7891,-0.0139 -4.18141,-0.07525 l -0.0558,1.227654 c 0.84277,0.03752 1.68632,0.06215 2.53039,0.07367 -0.0314,2.108236 -0.0629,4.216472 -0.0943,6.324708 z m 11.8333,-0.512241 c 0.88052,-0.104685 1.79884,-0.41425 2.46728,-0.832464 -0.16612,-0.31982 -0.33098,-0.640055 -0.49458,-0.960701 -0.50114,0.259236 -1.16597,0.45704 -1.74499,0.528255 -1.84349,0.226728 -3.06836,-0.761253 -3.2184,-2.446325 -0.14312,-1.607433 0.76821,-2.579637 2.40489,-2.776911 0.61852,-0.07455 1.3513,-0.05058 1.88523,0.06966 0.0883,-0.378627 0.17484,-0.757342 0.25954,-1.136136 -0.7137,-0.201728 -1.49231,-0.260771 -2.24877,-0.169258 -2.41171,0.291759 -4.01014,1.961538 -3.84239,4.3322 0.16075,2.271744 1.96162,3.697296 4.53219,3.391683 z m 2.96005,-0.510475 c 0.55268,-0.08397 1.10452,-0.172907 1.65545,-0.266771 0.44261,-2.37995 0.82271,-4.760757 1.1414,-7.140381 -0.10387,0.02061 -0.20778,0.04104 -0.31172,0.06127 1.1872,2.08357 2.43178,4.145931 3.73222,6.185391 0.56924,-0.126114 1.13729,-0.257453 1.70407,-0.393962 -1.54535,-2.215507 -3.01855,-4.463098 -4.4172,-6.740151 -0.60588,0.126628 -1.21295,0.246702 -1.82111,0.360141 -0.4756,2.646781 -1.03603,5.292768 -1.68311,7.934464 z m 1.64667,-2.173413 c 1.30727,-0.227375 2.60943,-0.483164 3.90555,-0.766703 -0.15942,-0.391772 -0.3179,-0.783825 -0.47545,-1.176156 -1.14053,0.246865 -2.28566,0.471883 -3.43471,0.674584 0.003,0.422674 0.004,0.845433 0.005,1.268275 z m 7.23665,0.382021 c 0.50998,-0.128414 1.01889,-0.261011 1.52668,-0.397753 l -1.64665,-6.102216 c 0.41186,-0.111303 0.823,-0.225556 1.23337,-0.342735 0.89796,-0.2564 1.55482,0.0059 1.76975,0.715528 0.20785,0.68623 -0.11413,1.231525 -0.93968,1.468846 -0.63861,0.183578 -1.27907,0.360278 -1.92128,0.530012 l 0.30293,1.146337 c 0.58545,-0.15463 1.16945,-0.314964 1.7519,-0.480936 1.82119,-0.518957 2.66872,-1.904256 2.21389,-3.320507 -0.42736,-1.330702 -1.68426,-1.768758 -3.33036,-1.294551 -0.93192,0.26847 -1.86778,0.521617 -2.80712,0.759129 z m 4.64139,-1.292598 c 0.60042,-0.183373 1.19907,-0.372539 1.79587,-0.56743 -1.08843,-0.835646 -2.15409,-1.687948 -3.19623,-2.556229 -0.53874,0.162184 -1.07887,0.319512 -1.62032,0.471931 0.98444,0.8984 1.99155,1.782513 3.02068,2.651728 z m 2.93295,-0.946437 c 0.88774,-0.301916 1.77122,-0.616509 2.65011,-0.94356 2.602,-0.968244 3.6488,-3.104925 2.71256,-5.304013 -0.90032,-2.114708 -2.84048,-2.723336 -5.20512,-1.835542 -0.86064,0.323124 -1.72576,0.633227 -2.59499,0.930046 z m 1.05872,-1.649774 -1.73072,-4.829186 c 0.38434,-0.13793 0.76784,-0.278419 1.15045,-0.421445 1.59651,-0.596791 2.88467,-0.113332 3.51052,1.425309 0.60583,1.489418 0.0614,2.71623 -1.59142,3.335096 -0.44511,0.166657 -0.89139,0.330075 -1.33883,0.490226 z m 6.34723,-1.203868 c 0.51295,-0.221404 1.02408,-0.447086 1.53331,-0.676996 -0.17668,-2.420657 -0.40927,-4.828157 -0.69666,-7.220462 -0.096,0.04629 -0.19197,0.09242 -0.28807,0.13839 1.67967,1.723354 3.40585,3.414688 5.177,5.072311 0.52003,-0.264097 1.0378,-0.532661 1.55323,-0.805639 -2.05035,-1.770063 -4.04305,-3.586271 -5.9757,-5.446001 -0.55864,0.275937 -1.1199,0.546329 -1.68367,0.811092 0.20359,2.69159 0.33105,5.401856 0.38056,8.127305 z m 1.04063,-2.524899 c 1.20926,-0.550861 2.40765,-1.126058 3.59422,-1.724924 -0.2528,-0.340814 -0.50482,-0.682097 -0.75607,-1.023848 -1.04575,0.525096 -2.10069,1.031589 -3.16414,1.519006 0.10952,0.409625 0.21819,0.819548 0.32599,1.229766 z m 7.1118,-1.435613 c 0.43746,-0.237142 0.87318,-0.477475 1.30713,-0.720966 l -2.88902,-5.147597 c -0.0313,0.03844 -0.0627,0.07687 -0.0941,0.115279 2.13677,1.03837 4.33132,2.012124 6.57914,2.917295 0.50002,-0.307931 0.99738,-0.620133 1.49201,-0.936552 l -4.07905,-6.379071 c -0.39166,0.250327 -0.78514,0.497827 -1.18039,0.742467 1.04402,1.693477 2.08785,3.387078 3.13147,5.080804 0.045,-0.04927 0.09,-0.09858 0.13494,-0.147919 -2.24012,-0.928467 -4.42634,-1.925527 -6.55414,-2.987179 -0.48356,0.273337 -0.96946,0.542457 -1.45763,0.807301 1.20322,2.218713 2.40643,4.437426 3.60965,6.656138 z m 11.09631,-6.84536 c 2.0933,-1.506109 2.42189,-3.791526 0.96204,-5.656003 -1.41296,-1.804587 -3.57022,-2.03278 -5.40155,-0.714763 -1.86711,1.343767 -2.33359,3.511348 -1.02618,5.490366 1.2653,1.915251 3.4537,2.328007 5.46569,0.8804 z m -0.62105,-1.07127 c -1.24683,0.899043 -2.67301,0.5683 -3.60118,-0.789397 -0.87518,-1.280168 -0.69774,-2.647876 0.40998,-3.443426 1.18098,-0.848163 2.61589,-0.590193 3.59773,0.705657 0.94643,1.249117 0.8003,2.656973 -0.40653,3.527166 z"
         id="text1"
         transform="matrix(1.1032157,0,0,0.90644106,2.2318097,177.65121)"
         aria-label="THOTH BOT CARDANO"
         inkscape:path-effect="#path-effect1"
         inkscape:original-d="m 61.769551,59.130981 h 1.394854 V 52.79965 h 2.440996 v -1.231395 h -6.25505 v 1.231395 h 2.4192 z m 4.816602,0 h 1.416649 v -3.236498 h 3.476239 v 3.236498 h 1.427546 v -7.562726 h -1.427546 v 3.073039 h -3.476239 v -3.073039 h -1.416649 z m 11.322301,0.09808 c 2.266639,0 3.781364,-1.569211 3.781364,-3.944822 0,-2.288433 -1.471136,-3.814055 -3.672391,-3.814055 -2.244843,0 -3.737773,1.569211 -3.737773,3.933925 0,2.29933 1.449341,3.824952 3.6288,3.824952 z m 0.108973,-1.231395 c -1.373059,0 -2.277535,-1.067935 -2.277535,-2.713427 0,-1.547417 0.860887,-2.58266 2.168562,-2.58266 1.394855,0 2.321125,1.078832 2.321125,2.70253 0,1.569211 -0.882681,2.593557 -2.212152,2.593557 z m 6.680045,1.133319 h 1.394855 V 52.79965 h 2.440995 v -1.231395 h -6.25505 v 1.231395 h 2.4192 z m 4.816603,0 h 1.416649 v -3.236498 h 3.476238 v 3.236498 h 1.427547 v -7.562726 h -1.427547 v 3.073039 h -3.476238 v -3.073039 h -1.416649 z m 10.374225,0 h 2.8224 c 1.83075,0 2.97496,-0.904475 2.97496,-2.332022 0,-1.307676 -0.95896,-2.13587 -2.51727,-2.13587 h -2.39741 v 1.100627 h 2.14677 c 0.8064,0 1.31857,0.479481 1.31857,1.220497 0,0.697428 -0.42499,1.013449 -1.34036,1.013449 h -1.6237 v -5.28519 h 1.01345 c 0.88268,0 1.37306,0.359611 1.37306,1.013449 0,0.533967 -0.34872,0.904476 -1.15512,1.176908 l 1.38396,0.152562 c 0.71922,-0.23974 1.18781,-0.915373 1.18781,-1.689081 0,-1.155114 -0.94807,-1.798055 -2.68074,-1.798055 H 99.8883 Z m 10.31974,0.09808 c 2.26664,0 3.78136,-1.569211 3.78136,-3.944822 0,-2.288433 -1.47113,-3.814055 -3.67239,-3.814055 -2.24484,0 -3.73777,1.569211 -3.73777,3.933925 0,2.29933 1.44934,3.824952 3.6288,3.824952 z m 0.10897,-1.231395 c -1.37306,0 -2.27753,-1.067935 -2.27753,-2.713427 0,-1.547417 0.86088,-2.58266 2.16856,-2.58266 1.39485,0 2.32112,1.078832 2.32112,2.70253 0,1.569211 -0.88268,2.593557 -2.21215,2.593557 z m 6.68005,1.133319 h 1.39485 V 52.79965 h 2.441 v -1.231395 h -6.25505 v 1.231395 h 2.4192 z m 10.51587,0.108973 c 0.78461,0 1.6346,-0.185254 2.27754,-0.501275 l -0.31602,-1.024347 c -0.47948,0.185255 -1.10063,0.294228 -1.6237,0.294228 -1.65639,0 -2.69163,-1.078833 -2.69163,-2.778812 0,-1.6128 0.93717,-2.517276 2.52817,-2.517276 0.59935,0 1.28588,0.11987 1.77626,0.316022 l 0.4032,-1.08973 c -0.65384,-0.305125 -1.39485,-0.468584 -2.13587,-0.468584 -2.39741,0 -4.0211,1.580108 -4.0211,3.95572 0,2.288432 1.53652,3.814054 3.80315,3.814054 z m 2.66984,-0.108973 h 1.49293 l 2.23395,-6.832607 h -0.30513 l 2.21216,6.832607 h 1.55831 l -2.62625,-7.562726 h -1.79805 z m 1.77626,-1.885232 h 3.6179 l -0.19615,-1.25319 h -3.2256 z m 6.29864,1.885232 h 1.40575 V 52.79965 h 1.2205 c 0.89358,0 1.41665,0.44679 1.41665,1.187806 0,0.719222 -0.43589,1.144216 -1.2314,1.144216 h -1.85254 v 1.187806 h 1.66729 c 1.72177,0 2.86599,-1.046141 2.86599,-2.539071 0,-1.394854 -1.01345,-2.212152 -2.68074,-2.212152 h -2.8115 z m 4.29354,0 h 1.67818 l -2.07049,-3.399957 h -1.55831 z m 2.74612,0 h 2.50638 c 2.44099,0 4.07559,-1.525622 4.07559,-3.923027 0,-2.288433 -1.46024,-3.639699 -3.92303,-3.639699 h -2.65894 z m 1.38395,-1.2096 v -5.132628 h 1.16602 c 1.63459,0 2.58266,0.948065 2.58266,2.604455 0,1.6128 -0.88269,2.528173 -2.46279,2.528173 z m 5.6884,1.2096 h 1.49293 l 2.23395,-6.832607 h -0.30512 l 2.21215,6.832607 h 1.55831 l -2.62625,-7.562726 h -1.79805 z m 1.77626,-1.885232 h 3.61791 l -0.19615,-1.25319 h -3.22561 z m 6.29865,1.885232 h 1.32947 V 53.23555 l -0.13077,0.05449 3.84675,5.840952 h 1.56921 v -7.562726 h -1.34037 l -0.0109,5.960823 0.17435,-0.05449 -3.83585,-5.906337 h -1.6019 z m 11.61651,0.09808 c 2.26664,0 3.78136,-1.569211 3.78136,-3.944822 0,-2.288433 -1.47113,-3.814055 -3.67239,-3.814055 -2.24484,0 -3.73777,1.569211 -3.73777,3.933925 0,2.29933 1.44934,3.824952 3.6288,3.824952 z m 0.10897,-1.231395 c -1.37306,0 -2.27753,-1.067935 -2.27753,-2.713427 0,-1.547417 0.86088,-2.58266 2.16856,-2.58266 1.39485,0 2.32113,1.078832 2.32113,2.70253 0,1.569211 -0.88269,2.593557 -2.21216,2.593557 z" /></g></g><style
     type="text/css"
     id="style11610">.st0{fill-rule:evenodd;clip-rule:evenodd;}</style></svg>
