<?xml version="1.0" encoding="UTF-8" standalone="no"?>
<svg
   width="343"
   height="50"
   viewBox="0 0 343 50"
   fill="none"
   version="1.1"
   id="svg10"
   sodipodi:docname="paybutton.svg"
   inkscape:version="1.3.1 (91b66b0783, 2023-11-16)"
   xmlns:inkscape="http://www.inkscape.org/namespaces/inkscape"
   xmlns:sodipodi="http://sodipodi.sourceforge.net/DTD/sodipodi-0.dtd"
   xmlns="http://www.w3.org/2000/svg"
   xmlns:svg="http://www.w3.org/2000/svg">
  <defs
     id="defs10" />
  <sodipodi:namedview
     id="namedview10"
     pagecolor="#505050"
     bordercolor="#ffffff"
     borderopacity="1"
     inkscape:showpageshadow="0"
     inkscape:pageopacity="0"
     inkscape:pagecheckerboard="1"
     inkscape:deskcolor="#d1d1d1"
     inkscape:zoom="2.7968309"
     inkscape:cx="149.45487"
     inkscape:cy="5.0056655"
     inkscape:window-width="1920"
     inkscape:window-height="1010"
     inkscape:window-x="0"
     inkscape:window-y="0"
     inkscape:window-maximized="1"
     inkscape:current-layer="svg10" />
  <g
     id="g11"
     inkscape:export-filename="pay_button.png"
     inkscape:export-xdpi="96.003"
     inkscape:export-ydpi="96.003">
    <rect
       x="81.562012"
       y="11.275002"
       width="179.87599"
       height="27.449997"
       rx="3.8773971"
       fill="#11f250"
       id="rect1"
       style="fill:#84c8c6;fill-opacity:1;stroke-width:0.539666" />
    <path
       d="M104.744 27.116C104.744 25.968 104.072 25.114 102.826 24.764C103.792 24.344 104.366 23.532 104.366 22.58C104.366 20.886 103.148 19.948 101.118 19.948H97.632V30H101.314C103.4 30 104.744 28.95 104.744 27.116ZM101.02 21.18C102.238 21.18 102.896 21.754 102.896 22.692C102.896 23.63 102.238 24.204 101.02 24.204H99.046V21.18H101.02ZM101.216 25.436C102.532 25.436 103.274 26.052 103.274 27.074C103.274 28.138 102.532 28.768 101.216 28.768H99.046V25.436H101.216ZM111.041 26.948C111.041 28.11 110.271 28.894 109.319 28.894C108.395 28.894 107.751 28.362 107.751 27.074V22.58H106.337V27.354C106.337 29.258 107.373 30.14 108.871 30.14C109.879 30.14 110.747 29.594 111.139 28.824V30H112.455V22.58H111.041V26.948ZM120.578 22.58H119.15L117.148 28.236L114.992 22.58H113.466L116.392 29.902L115.328 32.702H116.868L120.578 22.58ZM130.64 30H132.054L134.21 22.58H132.81L131.312 27.998L129.66 22.58H128.26L126.58 27.984L125.082 22.58H123.696L125.838 30H127.266L128.96 24.484L130.64 30ZM137.086 20.858C137.086 20.312 136.666 19.92 136.064 19.92C135.462 19.92 135.028 20.312 135.028 20.858C135.028 21.39 135.462 21.796 136.064 21.796C136.666 21.796 137.086 21.39 137.086 20.858ZM136.778 30V22.58H135.364V30H136.778ZM142.927 28.628C142.633 28.768 142.339 28.824 142.003 28.824C141.247 28.824 140.757 28.46 140.757 27.438V23.784H142.997V22.58H140.757V20.382H139.343V22.58H137.705V23.784H139.343V27.76C139.343 29.398 140.295 30.14 141.667 30.14C142.115 30.14 142.493 30.07 142.927 29.874V28.628ZM145.76 25.814C145.76 24.498 146.572 23.686 147.538 23.686C148.588 23.686 149.148 24.4 149.148 25.674V30H150.562V25.198C150.562 23.42 149.554 22.44 148.028 22.44C147.006 22.44 146.25 22.972 145.76 23.77V19.948H144.346V30H145.76V25.814Z"
       fill="black"
       id="path1" />
    <path
       d="M173.857 30.3389V22.4716L179.521 30.3389H181.551V19.4875H179.678V27.3493L173.967 19.4875H171.968V30.3389H173.857Z"
       fill="#021205"
       id="path2" />
    <path
       d="M194.384 22.0783H194.431V30.3389H196.319V19.4875H193.534L190.372 28.199L187.162 19.4875H184.345V30.3389H186.233V22.0783L189.302 30.3546H191.363L194.384 22.0783Z"
       fill="#021205"
       id="path3" />
    <path
       d="M199.119 19.4875V30.3389H201.023V27.0504L202.644 25.3038L205.838 30.3389H208.103L203.965 23.7933L207.679 19.4875H205.271L202.486 22.8492L201.023 24.6902V19.4875H199.119Z"
       fill="#021205"
       id="path4" />
    <path
       d="M217.994 22.7548C217.994 20.3003 216.405 19.4821 214.186 19.4821L209.544 19.4875V30.3389H211.448V26.0591H213.903L216.011 30.3389H218.104V30.2287L215.822 25.8231C217.065 25.4612 217.994 24.4856 217.994 22.7548ZM211.448 21.087H214.186C215.366 21.087 216.058 21.6692 216.058 22.7706C216.058 23.872 215.335 24.4542 214.186 24.4542H211.448V21.087Z"
       fill="#021205"
       id="path5" />
    <path
       d="M224.988 30.3334V26.5854H228.138C230.028 26.5854 231.681 25.1681 231.681 22.9791C231.681 20.8374 230.39 19.4673 228.138 19.4673H224.091V30.3334H224.988ZM228.122 20.2862C229.902 20.2862 230.752 21.2783 230.752 22.9791C230.721 24.6484 229.603 25.7508 228.138 25.7508H224.988V20.2862H228.122Z"
       fill="#021205"
       id="path6" />
    <path
       d="M232.381 28.0027C232.381 29.6405 233.625 30.4752 235.106 30.4752C236.35 30.4752 237.484 29.987 238.066 28.8531H238.114V30.3334H238.901V24.7271C238.901 22.6484 237.452 21.9555 235.877 21.9555C234.743 21.9555 232.995 22.0972 232.68 24.1917L233.389 24.3649H233.436C233.704 22.8531 234.696 22.6799 235.814 22.6799C237.263 22.6799 238.066 23.2626 238.066 24.7744V25.483H235.736C234.019 25.483 232.381 25.9712 232.381 28.0027ZM238.066 26.9319C238.066 28.8059 236.554 29.7507 235.279 29.7507C234.051 29.7507 233.263 29.1051 233.263 27.987C233.263 26.4909 234.35 26.1759 235.814 26.1759H238.066V26.9319Z"
       fill="#021205"
       id="path7" />
    <path
       d="M243.064 29.2468L240.56 22.1445H239.678L242.623 30.2232L242.151 31.42C241.962 31.9082 241.615 32.6799 240.592 32.6799H239.71V33.4673H240.608C242.135 33.4673 242.765 32.2232 243.426 30.4279L246.497 22.1445H245.631L243.064 29.2468Z"
       fill="#021205"
       id="path8" />
    <path
       d="M157.5 24.0035L157.5 19.4821H167.447V24.0035H165.639V25.3599L162.926 24.0035V25.3599L160.213 24.0035V25.3599L157.5 24.0035Z"
       fill="#021205"
       id="path9" />
    <path
       d="M157.5 28.5249V30.3334H167.447V28.5249H157.5Z"
       fill="#021205"
       id="path10" />
    <rect
       x="81.685425"
       y="11.148419"
       width="179.59753"
       height="27.703161"
       rx="3.7747087"
       stroke="#26bf48"
       stroke-width="0.310087"
       id="rect10"
       style="stroke:#131a56;stroke-opacity:1" />
  </g>
</svg>
